<svg width="422" height="224" viewBox="0 0 422 224" fill="none" xmlns="http://www.w3.org/2000/svg">
<g opacity="0.5">
<mask id="path-1-inside-1_1358_6254" fill="white">
<path fill-rule="evenodd" clip-rule="evenodd" d="M404.635 135.308C402.536 136.49 400.081 137.684 399.178 137.963C398.276 138.241 396.245 139.168 394.665 140.023C393.085 140.878 391.054 141.805 390.152 142.083C389.25 142.362 387.686 143.041 386.678 143.593C385.669 144.145 384.108 144.82 383.208 145.093C382.308 145.365 381.212 145.795 380.774 146.048C380.335 146.301 379.241 146.728 378.343 146.997C377.444 147.266 376.35 147.693 375.911 147.946C375.473 148.199 374.379 148.626 373.48 148.895C372.581 149.164 371.487 149.591 371.049 149.844C370.61 150.097 369.516 150.524 368.617 150.793C367.719 151.061 366.859 151.363 366.707 151.463C366.554 151.563 365.695 151.865 364.796 152.134C363.897 152.402 362.802 152.834 362.361 153.093C361.92 153.351 360.203 153.949 358.544 154.421C356.886 154.892 355.403 155.366 355.248 155.473C355.093 155.58 354.231 155.887 353.333 156.155C352.434 156.423 351.572 156.73 351.418 156.837C351.263 156.944 349.779 157.417 348.122 157.887C346.464 158.357 344.977 158.839 344.818 158.957C344.434 159.242 328.719 163.662 324.67 164.625C319.778 165.788 313.248 167.23 309.664 167.938C307.882 168.29 305.062 168.859 303.397 169.202C300.179 169.865 292.229 170.793 285.568 171.284C276.424 171.957 276.712 171.869 272.761 175.189C270.786 176.849 268.706 178.5 268.139 178.86C266.821 179.695 266.409 180.68 267.374 180.689C268.154 180.697 271.929 179.67 272.831 179.205C273.417 178.902 283.688 176.087 289.879 174.532C295.224 173.19 316.915 168.498 326.814 166.542C334.114 165.101 336.354 164.66 339.1 164.124C357.975 160.439 369.562 157.75 386.068 153.224C392.182 151.547 397.291 150.225 397.42 150.287C398.225 150.67 394.902 152.828 392.276 153.627C391.375 153.902 390.046 154.455 389.323 154.857C388.599 155.26 387.271 155.812 386.371 156.085C385.47 156.358 384.142 156.91 383.418 157.313C382.695 157.715 381.367 158.266 380.468 158.536C379.568 158.807 378.474 159.236 378.035 159.489C377.596 159.742 376.502 160.169 375.604 160.438C374.705 160.707 373.846 161.008 373.693 161.108C373.541 161.208 372.681 161.51 371.783 161.779C370.884 162.047 370.024 162.349 369.872 162.449C369.72 162.549 368.86 162.851 367.961 163.119C367.063 163.388 365.967 163.819 365.526 164.078C365.085 164.337 363.368 164.935 361.71 165.407C360.052 165.878 358.568 166.351 358.413 166.458C358.258 166.565 357.397 166.872 356.498 167.14C355.6 167.409 354.738 167.716 354.583 167.823C354.428 167.93 352.945 168.402 351.287 168.873C349.629 169.343 348.143 169.825 347.983 169.944C347.613 170.219 326.422 176.189 322.503 177.122C320.878 177.51 318.114 178.172 316.361 178.595C313.234 179.349 311.175 179.766 302.706 181.353C294.68 182.858 281.197 184.391 273.784 184.64C272.52 184.683 270.636 184.753 269.598 184.795C268.56 184.837 266.388 184.802 264.771 184.716C261.382 184.537 260.315 184.892 257.586 187.109C254.988 189.218 255.164 190.198 257.989 189.362C261.527 188.315 266.722 187.227 269.145 187.026C275.073 186.534 279.331 186.239 281.442 186.173C282.706 186.133 284.974 186.03 286.483 185.942C289.048 185.794 290.422 185.741 295.698 185.59C300.975 185.438 302.348 185.386 304.913 185.237C306.422 185.15 308.69 185.046 309.954 185.007C317.247 184.779 345.481 181.385 352.37 179.907C358.657 178.559 361.05 178.489 359.685 179.693C359.453 179.899 357.346 180.615 355.003 181.285C352.661 181.955 350.489 182.638 350.178 182.803C349.626 183.095 347.232 183.741 336.855 186.395C334.084 187.104 330.689 187.975 329.312 188.329C326.155 189.142 323.087 189.825 319.246 190.569C317.59 190.891 314.775 191.446 312.99 191.804C301.884 194.033 284.669 196.264 276.603 196.52C275.339 196.56 273.456 196.627 272.418 196.67C271.38 196.712 268.265 196.606 265.495 196.433C260.769 196.139 259.217 195.985 255.363 195.429C254.503 195.305 253.246 195.161 252.569 195.109C251.892 195.057 250.879 194.796 250.318 194.529C249.185 193.991 247.489 194.608 245.302 196.353C244.506 196.988 243.551 197.677 243.18 197.882C242.809 198.088 242.433 198.443 242.345 198.67C242.049 199.435 243.231 199.59 246.262 199.186C250.088 198.676 255.617 198.749 263.822 199.416C270.132 199.929 275.523 200.367 280.024 200.73C287.535 201.336 298.457 201.743 302.802 201.579C303.897 201.537 305.778 201.474 306.984 201.437C314.12 201.219 327.183 199.85 332.468 198.766C334.195 198.412 336.818 197.872 338.298 197.566C343.079 196.579 355.248 193.467 356.121 193.008C356.432 192.846 358.044 192.323 359.704 191.847C361.364 191.372 362.853 190.885 363.012 190.766C363.172 190.646 364.159 190.337 365.204 190.079C366.249 189.821 367.286 189.45 367.508 189.254C367.973 188.844 368.633 189.049 368.433 189.541C368.212 190.087 361.825 193.578 360.061 194.119C359.16 194.394 357.363 195.196 356.069 195.899C354.775 196.602 352.98 197.401 352.079 197.675C351.179 197.949 350.083 198.38 349.644 198.633C349.206 198.886 348.112 199.313 347.213 199.581C346.315 199.85 345.455 200.152 345.302 200.252C345.15 200.352 344.29 200.654 343.392 200.922C342.493 201.191 341.634 201.492 341.481 201.592C341.329 201.693 340.469 201.994 339.571 202.263C338.672 202.531 337.809 202.842 337.652 202.953C337.148 203.311 322.202 207.393 318.96 208.058C317.234 208.412 314.409 208.994 312.682 209.351C307.642 210.392 296.11 211.582 288.933 211.801C287.728 211.838 285.844 211.908 284.746 211.957C282.025 212.078 267.451 211.232 264.468 210.779C262.82 210.529 260.367 210.175 258.12 209.861C256.126 209.582 253.412 209.034 250.467 208.315C249.274 208.024 247.238 207.528 245.942 207.213C244.646 206.899 242.338 206.267 240.813 205.81C234.491 203.915 234.606 203.931 233.496 204.871C232.915 205.362 232.068 205.943 231.613 206.161C231.159 206.379 230.136 207.077 229.34 207.712C228.545 208.347 227.576 209.044 227.186 209.26C225.382 210.259 227.082 210.8 233.025 211.117C243.087 211.652 244.53 211.792 248.489 212.615C249.434 212.812 251 213.083 251.968 213.218C252.937 213.354 254.503 213.625 255.448 213.822C256.393 214.018 257.959 214.29 258.928 214.425C259.896 214.56 261.506 214.838 262.505 215.042C263.504 215.246 265.138 215.58 266.137 215.784C267.136 215.988 268.746 216.266 269.715 216.401C270.684 216.536 272.25 216.807 273.195 217.004C274.82 217.342 276.539 217.614 279.9 218.066C282.487 218.414 284.463 218.695 285.961 218.929C286.764 219.055 288.413 219.23 289.627 219.319C290.841 219.407 293.087 219.601 294.618 219.749C297.622 220.04 312.468 220.75 316.494 220.796C319.892 220.835 322.031 220.744 331.912 220.141C333.597 220.038 339.987 219.374 346.112 218.664C352.237 217.954 357.303 217.564 357.37 217.798C357.438 218.033 357.196 218.287 356.832 218.363C356.469 218.44 355.537 218.702 354.761 218.946C352.308 219.718 347.505 220.897 344.271 221.522C335.071 223.299 331.908 223.81 323.583 224.86C313.574 226.122 305.723 226.795 298.827 226.981C297.68 227.012 295.799 227.076 294.646 227.123C289.296 227.342 269.28 226.496 265.213 225.878C263.591 225.632 261.123 225.275 258.962 224.973C258.101 224.853 256.647 224.65 255.732 224.522C254.818 224.394 253.252 224.123 252.253 223.919C251.254 223.714 249.533 223.365 248.428 223.142C240.544 221.55 232.231 218.984 224.662 215.808L219.964 213.837L218.366 215.023C217.488 215.675 216.176 216.519 215.452 216.899C214.728 217.278 213.486 218.108 212.692 218.744C211.897 219.379 210.84 220.089 210.342 220.32C209.844 220.552 209.301 221.091 209.136 221.518C208.902 222.12 209.039 222.311 209.737 222.361C210.234 222.396 211.3 222.52 212.106 222.637C212.912 222.753 214.32 222.953 215.235 223.081C216.149 223.209 217.715 223.48 218.714 223.684C219.713 223.888 221.392 224.228 222.444 224.44C227.628 225.481 228.524 225.672 230.448 226.144C231.588 226.423 233.468 226.844 234.625 227.079C235.782 227.314 237.661 227.734 238.801 228.014C239.941 228.293 241.777 228.704 242.882 228.928C243.987 229.151 245.794 229.519 246.898 229.745C249.984 230.378 252.562 230.893 254.461 231.256C255.412 231.437 257.049 231.765 258.098 231.984C259.148 232.203 260.8 232.493 261.769 232.628C262.737 232.764 264.303 233.035 265.248 233.232C266.193 233.428 267.715 233.694 268.63 233.822C269.545 233.949 270.998 234.152 271.859 234.272C272.72 234.393 274.172 234.599 275.085 234.731C275.999 234.863 277.451 235.07 278.312 235.19C279.173 235.31 280.491 235.501 281.241 235.615C281.992 235.729 283.598 235.895 284.812 235.984C286.026 236.073 288.819 236.291 291.02 236.468C297.061 236.954 310.734 237.537 313.654 237.432C316.847 237.318 315.291 238.085 310.881 238.799C305.211 239.717 295.909 240.602 289.963 240.787C288.7 240.827 286.427 240.942 284.912 241.044C283.398 241.145 281.051 241.21 279.698 241.189C278.345 241.167 275.751 241.153 273.933 241.158C268.208 241.172 253.308 240.43 250.556 239.993C249.754 239.865 248.436 239.672 247.627 239.564C245.76 239.313 243.509 238.998 241.267 238.675C238.241 238.239 235.093 237.54 228.54 235.85C225.636 235.101 208.299 227.002 205.998 225.32C204.564 224.272 204.499 224.277 201.705 225.713C200.144 226.514 198.212 227.688 197.413 228.321C196.613 228.954 194.377 230.307 192.444 231.328C190.511 232.349 188.81 233.494 188.663 233.872C188.332 234.724 188.476 234.789 190.769 234.823C191.785 234.838 193.271 234.956 194.072 235.086C195.508 235.319 197.064 235.543 200.325 235.986C204.465 236.549 211.033 238.465 223.029 242.609C241.975 249.154 245.926 250.301 257.056 252.485C258.058 252.682 259.695 253.009 260.694 253.214C261.693 253.417 263.301 253.699 264.268 253.838C265.236 253.977 266.64 254.186 267.39 254.302C268.139 254.417 270.293 254.608 272.176 254.726C276.658 255.007 277.718 255.118 279.312 255.479C280.555 255.761 280.58 255.803 279.702 256.144C278.451 256.63 271.683 257.603 269.617 257.595C268.712 257.591 266.938 257.619 265.675 257.657C259.281 257.852 252.902 257.674 245.876 257.106C243.676 256.928 240.882 256.71 239.669 256.62C238.455 256.532 236.848 256.366 236.098 256.252C235.348 256.138 233.943 255.931 232.976 255.792C232.008 255.652 230.444 255.377 229.499 255.181C228.554 254.984 226.988 254.713 226.019 254.578C225.05 254.442 223.441 254.165 222.442 253.961C221.443 253.756 219.721 253.407 218.617 253.184C217.512 252.961 215.633 252.54 214.44 252.249C213.248 251.958 211.213 251.461 209.918 251.144C200.833 248.921 192.306 245.982 180.671 241.064L177.797 239.85L170.674 243.698C166.757 245.814 163.477 247.738 163.386 247.972C163.203 248.445 164.409 248.715 167.182 248.823C169.121 248.898 171.03 249.163 173.838 249.747C174.783 249.944 176.349 250.215 177.318 250.35C179.403 250.642 182.082 251.181 185.069 251.91C186.261 252.201 188.254 252.687 189.498 252.989C195.326 254.407 196.64 254.739 198.989 255.383C200.373 255.762 202.639 256.384 204.024 256.763C205.408 257.143 207.643 257.725 208.99 258.056C210.337 258.387 212.529 258.957 213.863 259.322C216.125 259.942 217.451 260.276 223.26 261.689C224.504 261.992 226.497 262.478 227.69 262.769C229.702 263.26 230.602 263.452 235.789 264.494C236.841 264.706 238.52 265.046 239.519 265.25C241.446 265.644 243.865 266.012 249.454 266.763C250.263 266.871 251.58 267.065 252.382 267.192C255.198 267.639 268.418 268.295 272.021 268.165C275.215 268.051 273.658 268.818 269.248 269.532C262.179 270.676 254.245 271.46 246.796 271.752C241.307 271.967 223.682 271.21 219.704 270.589C218.902 270.463 217.583 270.271 216.775 270.163C213.413 269.711 211.694 269.439 210.069 269.101C209.124 268.904 207.557 268.636 206.587 268.504C205.617 268.372 203.85 268.02 202.661 267.721C201.472 267.422 199.439 266.919 198.143 266.602C194.152 265.625 190.722 264.651 186.9 263.409C182.498 261.979 160.027 251.515 159.411 250.609C159.073 250.113 157.402 250.814 151.896 253.761C148.002 255.845 144.742 257.739 144.652 257.971C144.562 258.203 145.039 258.529 145.712 258.696C146.866 258.984 147.468 259.08 151.541 259.626C156.457 260.285 156.848 260.365 161.199 261.587C169.071 263.798 170.271 264.199 190.51 271.387C200.051 274.775 212.115 278.602 216.964 279.779C218.26 280.094 220.296 280.59 221.488 280.881C223.543 281.382 225.34 281.763 229.495 282.578C230.497 282.775 232.175 283.115 233.225 283.334C234.274 283.553 235.925 283.846 236.892 283.986C237.859 284.125 239.264 284.334 240.013 284.449C240.763 284.565 242.918 284.753 244.803 284.867C246.687 284.982 248.941 285.154 249.812 285.251C250.682 285.347 252.144 285.335 253.06 285.223C254.848 285.006 256.031 285.742 254.998 286.429C254.677 286.642 253.009 286.939 251.291 287.088C245.887 287.559 241.022 287.9 238.752 287.967C237.547 288.002 235.663 288.072 234.566 288.121C231.743 288.248 214.861 287.294 211.853 286.837C210.204 286.587 207.752 286.232 205.504 285.919C204.589 285.791 203.067 285.525 202.122 285.329C201.177 285.132 199.611 284.863 198.64 284.732C197.67 284.599 195.946 284.257 194.809 283.97C193.673 283.683 191.795 283.258 190.637 283.026C186.827 282.263 179.21 280.029 173.039 277.866C168.303 276.206 146.858 266.13 141.069 262.846L137.484 260.812L134.415 262.422C132.727 263.307 130.61 264.265 129.71 264.55C125.774 265.798 122.805 268.237 125.03 268.396C125.527 268.432 126.636 268.566 127.494 268.694C128.352 268.822 129.76 269.022 130.623 269.138C131.485 269.254 133.05 269.528 134.1 269.747C135.15 269.966 136.871 270.316 137.925 270.524C146.46 272.21 155.56 275.248 174.64 282.779C189.233 288.541 199.432 292.057 206.576 293.791C207.872 294.106 209.908 294.602 211.1 294.893C214.046 295.612 216.759 296.16 218.753 296.439C219.668 296.566 221.121 296.769 221.982 296.889C222.844 297.01 224.253 297.207 225.114 297.327C225.975 297.447 227.335 297.65 228.137 297.777C228.939 297.904 231.136 298.103 233.021 298.218C234.905 298.333 237.702 298.543 239.236 298.684C240.77 298.825 242.734 298.912 243.601 298.877C244.468 298.843 245.222 298.969 245.276 299.158C245.378 299.513 237.579 300.909 234.596 301.07C233.669 301.121 231.676 301.231 230.168 301.317C228.66 301.403 226.391 301.506 225.127 301.548C223.863 301.589 222.17 301.659 221.365 301.704C219.394 301.813 205.606 301.226 203.898 300.961C202.172 300.692 199.637 300.325 197.744 300.071C196.935 299.962 195.526 299.765 194.613 299.633C193.699 299.502 192.203 299.289 191.288 299.162C190.374 299.034 188.808 298.762 187.809 298.558C186.81 298.354 185.088 298.005 183.984 297.782C178.995 296.774 172.39 294.96 163.008 292.021C153.803 289.137 133.136 279.928 121.059 273.327L116.552 270.864L114.334 271.529C113.114 271.894 111.135 272.719 109.936 273.361C108.736 274.002 107.138 274.66 106.385 274.822C103.523 275.437 103.783 276.74 106.962 277.717C108.032 278.046 110.4 278.771 112.226 279.33C114.052 279.889 126.661 285.437 140.247 291.659C163.884 302.483 172.482 306.133 179.752 308.424C186.829 310.655 193.959 312.421 198.386 313.039C200.503 313.335 203.556 313.947 205.086 314.383C205.699 314.558 206.633 314.739 207.16 314.787C207.838 314.848 207.988 314.99 207.671 315.269C207.424 315.487 206.956 315.541 206.632 315.388C206.307 315.235 205.438 315.277 204.701 315.48C203.329 315.858 192.769 315.381 188.643 314.756C185.715 314.312 183.703 314.018 182.199 313.815C181.336 313.7 179.771 313.425 178.721 313.206C177.672 312.987 175.993 312.647 174.991 312.451C165.341 310.557 160.601 309.261 148.785 305.283C143.591 303.536 117.544 291.145 113.253 288.382C109.825 286.174 106.899 284.139 103.343 281.488C98.6677 278.003 99.0708 278.161 96.6507 278.872C95.415 279.236 94.0442 279.743 93.604 280C93.1641 280.257 92.0676 280.69 91.1675 280.963C90.2677 281.235 89.2327 281.611 88.8682 281.799C88.5033 281.986 87.6045 282.27 86.8707 282.427C86.1371 282.585 85.39 283.092 85.2106 283.554C84.9249 284.29 85.0803 284.445 86.4762 284.812C92.2651 286.334 95.1202 287.461 104.278 291.839C109.926 294.539 116.54 297.951 118.977 299.421C121.413 300.892 125.4 303.299 127.836 304.771C133.568 308.233 160.859 321.256 165.178 322.59C168.654 323.663 171.663 324.434 175.03 325.115C176.135 325.338 177.856 325.687 178.855 325.891C179.854 326.095 181.42 326.367 182.334 326.495C183.249 326.622 184.654 326.829 185.457 326.955C186.259 327.08 187.908 327.257 189.121 327.349C193.914 327.711 196.262 328.086 196.115 328.465C195.969 328.843 191.18 329.673 189.01 329.697C187.884 329.708 185.977 329.749 184.771 329.787C182.102 329.871 176.669 329.632 172.904 329.265C171.373 329.116 169.126 328.925 167.911 328.84C166.695 328.756 164.933 328.512 163.995 328.298C163.056 328.085 161.496 327.8 160.527 327.665C154.704 326.852 143.947 323.969 134.923 320.805C129.292 318.83 109.789 309.546 104.62 306.379C97.3118 301.902 93.7353 299.347 86.6083 293.512C85.7902 292.842 84.4489 291.752 83.6279 291.09C82.8071 290.427 81.5172 289.325 80.7617 288.64C77.8591 286.007 77.8251 285.994 75.4619 286.695C74.2236 287.063 72.9107 287.52 72.5448 287.712C72.1783 287.903 71.2785 288.189 70.5447 288.347C69.8111 288.504 69.0755 288.981 68.9107 289.406C68.6408 290.102 69.1878 290.477 74.3667 293.158C79.8938 296.018 82.6355 297.758 86.3697 300.774C90.0887 303.779 90.969 304.511 92.2963 305.706C93.0531 306.388 94.1558 307.375 94.7466 307.899C95.3374 308.424 96.5518 309.601 97.4453 310.515C99.5743 312.694 102.654 315.696 104.181 317.083C104.853 317.693 106.133 318.94 107.026 319.855C107.919 320.771 109.204 322.004 109.882 322.597C110.56 323.189 111.628 324.145 112.256 324.72C115.143 327.365 116.094 328.202 117.485 329.324C118.306 329.986 119.719 331.13 120.626 331.864C127.848 337.714 134.865 342.275 143.529 346.748C146.98 348.53 149.738 350.154 149.659 350.358C149.058 351.907 145.255 350.465 126.638 341.628C112.294 334.821 108.72 332.756 100.091 326.295C98.9925 325.473 97.2637 324.185 96.2497 323.435C95.2356 322.685 93.8234 321.539 93.1115 320.888C92.3996 320.237 91.3028 319.234 90.6752 318.659C90.0472 318.084 88.9485 317.087 88.2337 316.444C87.5188 315.801 86.3844 314.775 85.713 314.166C85.0416 313.557 83.9724 312.603 83.3375 312.046C82.7022 311.49 81.06 309.86 79.6878 308.425C75.5339 304.081 69.6435 298.064 67.4233 295.899C66.271 294.774 64.9188 293.439 64.4184 292.933C63.9183 292.425 63.1849 291.857 62.7892 291.668C61.8784 291.235 51.4282 294.052 51.134 294.81C50.8715 295.487 51.994 296.469 55.7545 298.854C59.2175 301.051 61.2388 302.634 63.3494 304.804C66.5566 308.1 73.454 315.629 75.8144 318.409C79.5761 322.838 89.0724 333.23 90.4422 334.415C91.1219 335.003 92.226 335.987 92.8958 336.6C93.5655 337.213 94.822 338.282 95.6879 338.975C96.5538 339.668 97.9641 340.819 98.8219 341.533C99.6797 342.247 101.44 343.454 102.733 344.215C104.985 345.54 105.782 346.46 105.441 347.338C105.243 347.848 91.1792 340.74 86.6391 337.837C82.6125 335.261 79.343 332.968 77.1507 331.184C76.245 330.447 74.8325 329.301 74.0115 328.639C73.1908 327.977 71.9707 326.933 71.301 326.32C69.5023 324.672 67.6333 322.996 66.3267 321.858C64.9466 320.656 53.0569 307.653 50.9722 305.065C48.3311 301.788 46.7377 299.84 45.2792 298.105L43.8414 296.395L40.7824 297.199C32.8499 299.282 29.5119 300.05 21.683 301.589C19.8403 301.951 17.2188 302.486 15.8572 302.778C14.4956 303.071 10.7704 303.648 7.57923 304.061C2.2573 304.751 1.7493 304.732 1.44542 303.834C1.13363 302.912 1.12995 299.935 1.43649 296.368C1.51106 295.503 1.29766 293.655 0.962958 292.26C0.376559 289.818 0.673217 288.427 1.67844 288.906C2.47953 289.287 25.6707 286.548 36.2335 284.824L41.0791 284.033L43.0377 279.798C44.1148 277.468 46.1167 273.134 47.4862 270.165C51.9665 260.454 58.2828 247.631 62.93 238.813C64.3781 236.065 65.1554 234.639 68.7426 228.152C69.5033 226.776 70.7211 224.572 71.4495 223.253C73.2745 219.949 74.9681 217.07 76.3508 214.923C76.9933 213.925 78.0051 212.274 78.5995 211.254C80.2228 208.468 81.5531 206.394 83.257 203.993C84.1023 202.802 85.6669 200.585 86.7341 199.066C87.8014 197.546 88.8771 196.174 89.1242 196.017C89.3715 195.859 89.7366 195.311 89.9358 194.797C90.299 193.861 91.3046 193.079 91.8264 193.328C92.2078 193.509 91.5962 194.997 91.0028 195.331C90.7379 195.48 90.0077 196.661 89.3798 197.955C88.752 199.249 87.485 201.727 86.5643 203.461C83.1294 209.93 79.4557 218.463 70.1948 241.481C64.963 254.486 59.9734 266.447 59.1067 268.062C56.2262 273.428 55.1915 275.118 53.0623 277.93C51.7682 279.639 51.0143 280.937 51.114 281.283C51.2137 281.629 52.2686 281.625 53.8396 281.273L56.4027 280.698L58.0768 277.166C61.069 270.853 63.8481 265.144 65.6666 261.574C70.9863 251.133 71.4422 250.254 75.5205 242.569C76.3489 241.008 77.7238 238.404 78.5761 236.783C79.4285 235.161 80.7734 232.661 81.5643 231.228C82.3554 229.794 83.5983 227.542 84.3265 226.224C85.0547 224.905 86.2486 222.807 86.9792 221.562C87.7098 220.317 88.8769 218.266 89.5728 217.005C90.2686 215.743 91.409 213.738 92.1072 212.55C92.8053 211.362 93.8924 209.51 94.5224 208.434C95.1527 207.358 96.1937 205.662 96.8361 204.665C97.4785 203.667 98.4904 202.016 99.0847 200.996C99.6791 199.975 100.691 198.324 101.333 197.327C101.976 196.329 102.988 194.678 103.582 193.658C104.176 192.638 105.132 191.079 105.707 190.194C107.081 188.076 108.718 185.514 109.9 183.633C110.426 182.796 111.547 181.139 112.392 179.948C113.237 178.757 114.786 176.532 115.834 175.004C119.152 170.163 124.748 162.489 126.308 160.638C127.136 159.656 128.552 157.96 129.454 156.87C130.355 155.779 132.038 153.795 133.193 152.463C134.348 151.13 135.729 149.484 136.262 148.806C136.795 148.128 137.535 147.447 137.909 147.293C139.255 146.736 138.484 148.688 136.086 151.903C134.782 153.651 133.314 155.719 132.822 156.499C132.331 157.278 131.406 158.734 130.767 159.733C130.127 160.732 129.089 162.429 128.459 163.505C127.829 164.581 126.742 166.433 126.044 167.621C119.773 178.29 112.592 192.816 103.124 213.977C92.8917 236.848 86.1228 250.918 81.9435 258.001C81.2433 259.188 80.1545 261.039 79.5245 262.116C76.8368 266.704 73.6906 271.189 71.7928 273.137C71.2471 273.697 70.4386 274.753 69.9963 275.484C68.8693 277.345 69.5822 277.541 73.4896 276.446C76.2434 275.675 76.7949 275.344 77.532 274.026C80.5267 268.671 81.3607 267.106 83.0555 263.665C85.0816 259.552 87.9882 253.451 91.799 245.315C93.1024 242.533 95.2353 237.979 96.5385 235.197C103.495 220.344 109.721 207.515 112.991 201.296C117.414 192.882 119.506 189.037 121.58 185.507C122.278 184.319 123.395 182.421 124.061 181.29C124.726 180.159 125.787 178.353 126.417 177.277C127.047 176.201 128.032 174.597 128.606 173.712C129.181 172.827 130.104 171.371 130.658 170.476C131.212 169.582 132.269 168.07 133.006 167.118C133.742 166.165 134.517 164.948 134.728 164.414C134.939 163.88 135.316 163.394 135.566 163.334C135.816 163.274 136.195 162.777 136.407 162.229C136.791 161.24 137.788 160.442 138.322 160.697C138.707 160.88 138.089 162.369 137.492 162.697C137.224 162.845 136.214 164.722 135.248 166.869C134.281 169.015 132.087 173.895 130.371 177.712C126.229 186.924 111.227 224.68 111.632 224.873C112.36 225.219 113.208 224.02 114.841 220.34C116.942 215.605 120.715 208.181 124.591 201.158C125.382 199.724 126.624 197.473 127.353 196.154C128.081 194.835 129.248 192.784 129.946 191.596C130.644 190.408 131.732 188.556 132.362 187.48C132.992 186.404 134.004 184.753 134.61 183.811C135.217 182.869 136.207 181.326 136.811 180.382C137.414 179.439 138.348 177.988 138.887 177.158C139.425 176.328 140.296 174.965 140.821 174.129C142.832 170.93 150.365 160.497 151.008 160.022C152.072 159.235 152.242 159.939 151.366 161.509C147.152 169.063 145.228 172.701 142.523 178.231C139.869 183.656 122.003 228.757 122.427 228.959C123.188 229.321 124.051 228.006 125.986 223.532C128.358 218.048 132.354 209.919 136.89 201.352C137.747 199.733 139.145 197.081 139.998 195.459C140.85 193.838 142.195 191.338 142.986 189.905C143.777 188.471 145.02 186.219 145.748 184.9C146.477 183.582 147.644 181.531 148.342 180.343C149.04 179.155 150.181 177.209 150.876 176.02C152.16 173.826 153.679 171.242 155.653 167.894C156.254 166.876 157.27 165.228 157.913 164.23C158.555 163.233 159.567 161.582 160.162 160.561C160.756 159.541 161.739 157.935 162.345 156.993C162.952 156.051 163.878 154.596 164.404 153.76C164.929 152.924 166.051 151.267 166.897 150.076C167.742 148.886 168.902 147.187 169.473 146.3C170.592 144.561 177.208 135.195 178.657 133.295C183.26 127.265 185.091 124.955 186.384 123.545C187.217 122.638 188.138 121.562 188.431 121.153C188.723 120.744 189.011 120.577 189.07 120.782C189.129 120.987 188.752 121.661 188.231 122.279C187.71 122.897 186.704 124.499 185.995 125.839C185.286 127.179 184.18 129.092 183.538 130.089C182.162 132.224 180.453 135.128 178.695 138.316C178 139.577 176.831 141.628 176.098 142.872C169.265 154.471 159.186 176.199 145.887 208.005C134.245 235.843 127.993 248.549 121.952 256.642C118.903 260.727 118.778 261.463 121.353 260.169C122.17 259.758 123.577 259.194 124.479 258.916C125.381 258.637 126.895 257.957 127.843 257.403L129.566 256.397L137.495 236.435C141.856 225.456 146.52 214.151 147.86 211.314C151.896 202.763 154.34 197.752 156.04 194.539C156.927 192.862 158.328 190.211 159.153 188.649C159.978 187.087 161.301 184.636 162.092 183.202C162.883 181.768 164.126 179.516 164.854 178.198C165.582 176.879 166.725 174.876 167.393 173.746C168.062 172.616 169.178 170.718 169.873 169.529C170.569 168.34 171.707 166.393 172.403 165.204C175.732 159.513 175.905 159.23 179.036 154.407C179.574 153.577 180.471 152.168 181.029 151.275C181.587 150.382 182.735 148.677 183.58 147.487C184.425 146.296 185.909 144.159 186.879 142.738C190.244 137.804 196.275 129.567 196.814 129.169C197.112 128.948 197.51 128.842 197.699 128.932C198.097 129.121 198.045 129.218 192.72 138.278C192.022 139.466 190.855 141.517 190.127 142.836C189.399 144.155 188.153 146.405 187.359 147.837C185.963 150.353 184.459 153.352 180.055 162.396C176.193 170.331 171.112 182.243 162.226 204.198C152.181 229.02 148.97 236.114 145.019 242.215C144.41 243.156 143.478 244.608 142.949 245.442C141.451 247.802 140.353 249.258 139.149 250.484C137.9 251.755 137.338 252.908 137.85 253.152C138.038 253.241 139.895 252.405 141.975 251.293C144.055 250.181 146.497 249.041 147.4 248.761C150.57 247.775 150.231 248.49 156.368 229.845C159.518 220.274 169.839 193.642 173.683 185.166C178.717 174.062 183.773 163.902 188.778 154.832C189.569 153.398 190.812 151.147 191.54 149.828C193.366 146.524 195.059 143.645 196.442 141.498C197.084 140.501 198.096 138.85 198.691 137.829C199.285 136.809 200.268 135.203 200.874 134.261C201.481 133.319 202.407 131.864 202.933 131.028C203.458 130.192 204.58 128.534 205.426 127.344C206.271 126.154 207.447 124.462 208.037 123.585C210.139 120.462 211.454 120.414 209.835 123.519C205.315 132.184 205.301 132.22 178.985 200.46C173.401 214.942 169.519 224.572 168.525 226.417C165.654 231.743 163.211 235.754 161.191 238.46C158.142 242.545 158.017 243.281 160.592 241.987C161.409 241.577 162.817 241.009 163.722 240.726C164.626 240.443 167.561 239.018 170.245 237.561C174.52 235.239 175.152 234.756 175.345 233.656C175.466 232.967 175.787 231.382 176.057 230.135C176.328 228.888 176.793 226.74 177.091 225.361C178.408 219.263 179.959 213.441 182.604 204.684C184.591 198.101 203.11 150.394 206.757 142.459C210.683 133.92 213.723 127.54 215.858 123.359C216.87 121.378 218.327 118.399 219.097 116.738C220.419 113.888 221.282 112.776 221.934 113.086C222.091 113.161 221.353 115.713 220.295 118.757C214.844 134.432 210 150.308 205.738 166.461C204.341 171.757 201.304 182.706 199.481 189.021C194.431 206.514 189.537 219.278 184.946 226.932C184.5 227.674 184.282 228.407 184.426 228.67C184.687 229.146 193.168 224.871 194.982 223.351C196.067 222.442 196.29 221.721 197.371 215.663C197.585 214.462 197.982 212.459 198.253 211.212C198.525 209.965 198.99 207.817 199.287 206.438C202.607 191.059 207.663 175.182 216.433 152.595C225.471 129.317 227.737 124.274 228.909 124.832C229.234 124.987 228.726 127.243 227.193 132.441C226.557 134.6 225.716 137.694 225.325 139.319C224.077 144.498 223.259 147.863 222.571 150.646C222.203 152.136 221.73 154.34 221.522 155.544C221.313 156.748 220.921 158.753 220.65 160C220.379 161.246 219.936 163.286 219.664 164.533C219.393 165.78 218.999 167.784 218.788 168.987C218.576 170.189 218.182 172.193 217.911 173.44C217.64 174.687 217.172 176.834 216.872 178.212C216.572 179.589 216.099 181.793 215.821 183.109C214.569 189.038 213.379 192.761 209.614 202.534C205.882 212.224 205.179 213.722 202.801 217.063C201.883 218.354 202.942 218.677 204.316 217.525C204.92 217.019 206.487 216.047 207.798 215.365C209.109 214.684 211.074 213.408 212.165 212.53C214.28 210.829 214.604 210.119 215.412 205.426C215.608 204.289 215.935 202.429 216.137 201.295C216.34 200.161 216.635 198.465 216.793 197.526C217.71 192.075 218.343 188.976 219.559 183.967C219.922 182.474 220.541 179.925 220.936 178.303C225.922 157.799 229.908 145.489 239.961 119.561C247.849 99.2142 250.841 92.0923 251.39 92.3535C252.1 92.6917 251.845 94.3065 250.421 98.4832C248.675 103.604 247.986 106.042 244.223 120.406C243.109 124.657 242.133 128.681 241.447 131.854C241.134 133.298 240.594 135.647 240.246 137.075C239.66 139.485 239.41 140.604 238.018 147.073C236.626 153.541 236.377 154.66 235.79 157.07C235.442 158.498 234.902 160.847 234.59 162.291C234.277 163.735 233.725 166.138 233.362 167.631C233 169.124 232.38 171.672 231.986 173.295C228.943 185.806 225.768 195.551 222.404 202.699C221.191 205.275 221.025 205.86 221.447 206.061C221.728 206.195 222.438 205.901 223.025 205.409C223.612 204.918 224.878 204.094 225.838 203.581C227.976 202.437 229.727 200.712 229.657 199.819C229.628 199.453 229.836 198.197 230.118 197.026C230.4 195.856 230.889 193.718 231.204 192.275C232.089 188.225 233.055 184.329 234.154 180.383C234.706 178.402 235.637 175.053 236.222 172.942C241.628 153.446 247.094 137.385 257.161 111.425C267.698 84.253 269.604 79.961 270.868 80.5626C271.027 80.6384 269.975 83.988 268.53 88.0067C264.863 98.2026 262.445 106.018 259.548 117.038C258.745 120.092 258.346 121.699 256.566 129.046C256.188 130.604 255.583 133.1 255.22 134.593C254.857 136.086 254.332 138.383 254.052 139.697C253.772 141.012 253.282 143.268 252.965 144.709C252.647 146.151 252.17 148.353 251.905 149.602C250.805 154.784 250.306 157.029 249.681 159.602C249.319 161.095 248.705 163.646 248.317 165.272C247.659 168.031 244.643 177.813 243.68 180.31C243.041 181.968 238.95 190.636 237.869 192.622C236.288 195.528 237.528 195.752 240.775 193.145C241.567 192.509 242.351 191.934 242.516 191.868C242.681 191.801 243.712 191.022 244.806 190.136C246.669 188.628 246.814 188.401 247.076 186.608C247.531 183.489 247.955 181.147 248.383 179.389C248.604 178.481 249.015 176.662 249.296 175.348C255.307 147.253 270.789 107.367 287.295 77.4559C290.716 71.2558 291.657 69.5383 292.499 67.9533C294.355 64.4583 295.745 64.7458 293.966 68.2567C292.029 72.0757 276.56 112.302 274.666 118.442C272.204 126.424 270.358 132.632 269.144 137.009C266.636 146.056 265.885 148.737 264.818 152.458C264.196 154.624 263.12 158.377 262.427 160.799C261.733 163.22 259.862 168.787 258.269 173.169C255.911 179.657 255.465 181.181 255.868 181.373C256.14 181.503 256.674 181.301 257.053 180.925C257.432 180.549 258.05 180.073 258.426 179.867C258.801 179.661 260 178.775 261.09 177.897C263.194 176.201 263.544 175.441 264.309 170.91C266.154 159.976 268.215 151.742 273.496 134.209C275.136 128.764 291.404 86.5214 294.875 78.6948C296.737 74.4969 297.015 74.0526 297.607 74.3343C298.221 74.6266 298.076 75.171 295.456 82.394C293.911 86.6544 292.112 92.0186 291.459 94.3144C289.722 100.42 288.321 105.492 287.344 109.206C286.541 112.261 286.142 113.867 284.362 121.215C283.984 122.773 283.367 125.322 282.989 126.88C282.612 128.438 281.994 130.988 281.616 132.546C281.239 134.104 280.609 136.707 280.216 138.33C278.52 145.34 277.244 149.354 273.531 159.371C270.425 167.747 269.686 170.047 270.046 170.219C270.298 170.338 272.348 168.913 274.601 167.051C278.136 164.13 278.742 163.461 279.016 162.175C279.19 161.356 279.537 159.715 279.785 158.53C281.164 151.958 282.321 146.726 283.102 143.522C290.922 111.439 306.784 69.7282 322.525 39.8567C323.44 38.1202 324.665 35.7413 325.248 34.5705C325.83 33.3995 326.523 32.3191 326.786 32.1698C327.05 32.0201 327.585 31.078 327.974 30.0757C328.632 28.3786 329.555 27.4055 330.209 27.717C330.604 27.9051 329.28 31.173 328.678 31.4951C328.209 31.7462 322.797 44.5 318.743 54.9073C316.296 61.19 310.679 77.4775 308.993 83.1778C305.501 94.9851 304.361 99.104 302.775 105.625C302.38 107.247 301.735 109.902 301.34 111.525C300.945 113.147 300.264 115.844 299.826 117.518C299.387 119.192 298.695 121.943 298.286 123.631C296.204 132.244 290.113 149.444 287.476 154.161C286.658 155.623 286.582 155.974 287.037 156.19C287.34 156.334 288.102 155.927 288.731 155.285C289.36 154.643 291.5 152.787 293.485 151.159C297.015 148.266 297.102 148.157 297.374 146.296C297.527 145.249 297.799 143.574 297.979 142.574C298.159 141.573 298.453 139.877 298.633 138.804C298.813 137.731 299.141 136.11 299.362 135.201C299.583 134.293 299.994 132.474 300.275 131.16C300.556 129.846 301.083 127.549 301.446 126.056C301.808 124.563 302.426 122.014 302.819 120.391C306.867 103.66 315.265 79.3384 324.325 58.11C326.8 52.3086 327.726 50.7581 328.495 51.1242C328.65 51.198 328.145 53.1498 327.373 55.461C325.211 61.9327 322.623 70.2515 321.452 74.4957C320.869 76.6078 319.94 79.9567 319.388 81.9388C318.836 83.9207 318.063 86.8698 317.67 88.4933C317.277 90.1162 316.659 92.6656 316.297 94.1586C315.934 95.6515 315.382 98.0543 315.069 99.4984C314.757 100.942 314.216 103.292 313.869 104.719C313.521 106.147 312.981 108.496 312.669 109.941C312.041 112.839 311.156 116.516 309.883 121.516C309.422 123.324 307.66 128.587 305.967 133.211C303.604 139.665 302.993 141.669 303.337 141.833C303.583 141.95 305.715 140.299 308.073 138.163C312.768 133.911 312.745 133.951 314.096 127.603C315.306 121.916 315.746 119.941 316.403 117.247C319.513 104.49 323.204 92.7445 330.368 72.8165C333.125 65.1501 335.581 58.3814 335.829 57.775C340.258 46.9061 347.406 30.1086 349.153 26.4666C350.396 23.8729 352.09 20.2953 352.916 18.5164C354.338 15.4553 355.194 14.3347 355.866 14.6547C356.029 14.7325 353.575 21.6807 350.413 30.0948C347.252 38.509 343.973 47.6714 343.129 50.4553C340.276 59.863 337.429 70.5815 335.865 77.803C335.553 79.2471 335.013 81.5965 334.665 83.024C334.318 84.4515 333.777 86.801 333.465 88.2451C332.839 91.1343 331.959 94.7937 330.68 99.8207C329.356 105.022 323.466 120.766 322.193 122.508C321.603 123.314 321.161 124.117 321.211 124.291C321.482 125.232 322.997 124.21 326.186 120.936C328.144 118.925 330.243 116.888 330.85 116.409C332.288 115.273 332.453 114.782 332.938 110.204C333.349 106.319 333.67 104.359 334.568 100.224C334.839 98.9774 335.304 96.8291 335.602 95.4501C337.309 87.5447 339.8 78.3702 343.359 66.8889C345.951 58.5239 359.041 24.111 359.83 23.5864C361.411 22.5352 361.226 24.0404 358.874 31.3579C355.683 41.286 352.937 51.3383 351.109 59.7834C350.796 61.2275 350.256 63.577 349.909 65.0045C349.561 66.432 349.033 68.7277 348.736 70.1068C348.438 71.4858 347.951 73.7418 347.653 75.1209C347.356 76.4999 346.816 78.8489 346.453 80.3419C346.09 81.8349 345.473 84.3838 345.08 86.0072C343.688 91.7616 342.294 96.4784 340.366 101.964C338.171 108.211 338.262 108.64 341.189 105.841C342.414 104.67 343.077 103.716 343.233 102.901C343.467 101.678 343.923 99.5232 344.953 94.7675C345.601 91.781 346.723 87.4803 348.435 81.4169C349.956 76.0287 362.942 42.5601 365.68 36.9677C366.831 34.6191 368.498 31.3249 369.385 29.6477C370.273 27.9706 371.67 25.3179 372.491 23.754C373.312 22.1901 374.557 19.9391 375.257 18.7517C375.958 17.5643 377.05 15.7148 377.685 14.6415C378.32 13.5682 379.202 12.0329 379.644 11.2299C381.287 8.25296 384.496 3.51682 385.243 2.96837C386.315 2.18076 386.481 2.88462 385.591 4.45068C381.817 11.0966 369.811 41.1448 363.45 59.8658C358.335 74.9179 351.075 93.0346 349.901 93.6737C349.303 93.9994 348.683 95.4897 349.069 95.6734C349.603 95.9278 350.6 95.1301 350.984 94.1411C351.196 93.5931 351.575 93.0961 351.825 93.0361C352.075 92.9762 352.455 92.4913 352.668 91.9585C353.156 90.7432 369.023 69.5114 373.187 64.5013C375.312 61.9455 377.703 59.0589 379.443 56.9475C383.402 52.1452 384.424 50.9235 386.453 48.5679C387.647 47.1816 389.599 44.9114 390.791 43.5239C391.982 42.1366 394.009 39.7835 395.295 38.2958C396.58 36.8083 398.683 34.3728 399.968 32.8848C402.161 30.3431 403.697 28.5939 410.972 20.351C418.291 12.058 419.789 10.3513 422.055 7.72317C423.383 6.18327 425.078 4.26487 425.821 3.46024C426.565 2.65564 427.293 1.68674 427.439 1.30785C427.722 0.575701 428.769 -0.139169 429.234 0.0821878C429.636 0.273534 428.928 1.9201 428.388 2.04924C428.138 2.10918 427.735 2.6702 427.492 3.29604C427.249 3.92189 426.272 5.51623 425.321 6.83915C424.37 8.16191 423.094 10.0147 422.486 10.956C419.745 15.199 419.055 16.2456 417.4 18.6719C416.431 20.093 415.107 22.0694 414.459 23.0641C410.21 29.581 392.286 53.9233 387.471 59.716C386.695 60.6498 385.285 62.3483 384.337 63.4903C377.462 71.781 362.924 87.1201 355.86 93.5369C352.618 96.4817 349.897 99.0693 349.812 99.2871C349.728 99.5044 349.08 100.286 348.373 101.024C346.793 102.672 345.409 104.99 345.874 105.211C346.061 105.3 346.288 105.181 346.378 104.948C346.469 104.715 347.077 104.234 347.73 103.88C348.383 103.526 349.569 102.718 350.367 102.084C351.165 101.45 352.184 100.75 352.632 100.529C353.079 100.308 354.096 99.6068 354.89 98.9714C355.684 98.3358 356.932 97.508 357.663 97.132C358.394 96.7559 359.648 95.9312 360.451 95.2993C361.253 94.6677 370.933 89.3235 381.963 83.4235C392.992 77.5235 402.674 72.1797 403.477 71.5486C404.281 70.9174 405.769 69.9669 406.783 69.4363C407.798 68.9056 409.279 67.9521 410.075 67.3172C410.871 66.6822 411.888 65.9817 412.336 65.7604C412.783 65.5392 413.798 64.8375 414.591 64.201C415.384 63.5648 416.164 62.9885 416.326 62.9207C416.487 62.8528 417.268 62.2766 418.061 61.6401C418.853 61.0037 419.636 60.4287 419.802 60.3625C419.967 60.2964 421.016 59.4925 422.133 58.5764C423.251 57.6605 424.726 56.5345 425.41 56.0747C426.095 55.6148 426.826 55.0154 427.036 54.7425C427.246 54.4697 427.474 54.4142 427.542 54.6192C427.725 55.1718 424.367 58.8509 421.299 61.4591C419.82 62.7163 417.113 65.0249 415.284 66.5895C413.455 68.1542 411.705 69.5723 411.395 69.741C411.086 69.9098 409.644 71.022 408.19 72.2125C406.737 73.4031 405.411 74.4307 405.244 74.496C405.077 74.5614 404.292 75.1357 403.5 75.7721C402.707 76.4085 401.927 76.9848 401.765 77.0527C401.603 77.1205 400.823 77.6968 400.03 78.3332C399.238 78.9696 398.457 79.5459 398.296 79.6138C398.134 79.6816 397.353 80.2579 396.561 80.8941C395.768 81.5306 394.753 82.2322 394.306 82.4535C393.858 82.6748 392.843 83.3765 392.05 84.0128C391.257 84.649 390.242 85.3507 389.795 85.572C389.347 85.7933 388.329 86.4935 387.532 87.1279C386.736 87.7624 385.021 88.8418 383.721 89.5265C382.422 90.2113 380.7 91.2874 379.896 91.918C377.983 93.4171 357.041 104.621 354.913 105.284C354.01 105.565 352.679 106.124 351.955 106.526C351.232 106.929 349.903 107.482 349.002 107.757C348.102 108.031 347.1 108.391 346.777 108.556C346.454 108.722 344.927 109.187 343.383 109.59C341.051 110.2 340.227 110.694 338.519 112.505C336.229 114.935 332.624 119.13 332.457 119.558C332.156 120.336 333.326 119.967 336.549 118.268C338.505 117.237 340.839 116.162 341.737 115.88C342.634 115.596 344.661 114.666 346.241 113.811C347.821 112.956 349.851 112.03 350.753 111.754C351.654 111.477 352.984 110.922 353.707 110.52C354.431 110.117 355.758 109.567 356.658 109.296C357.557 109.025 358.652 108.596 359.091 108.343C359.529 108.09 360.623 107.663 361.522 107.394C362.421 107.125 363.515 106.698 363.953 106.445C364.392 106.192 365.486 105.765 366.385 105.496C367.283 105.228 368.377 104.801 368.816 104.548C369.254 104.294 370.349 103.867 371.247 103.599C372.146 103.33 373.24 102.903 373.678 102.65C374.117 102.397 375.211 101.97 376.11 101.701C377.008 101.432 377.868 101.131 378.02 101.03C378.173 100.93 379.032 100.629 379.931 100.36C380.83 100.091 381.924 99.6644 382.362 99.4113C382.801 99.1583 383.895 98.7313 384.794 98.4624C385.692 98.1935 386.786 97.7665 387.225 97.5135C387.663 97.2604 388.758 96.8334 389.656 96.5645C390.555 96.2956 391.649 95.8686 392.088 95.6156C392.526 95.3626 393.62 94.9355 394.519 94.6667C395.417 94.3978 396.512 93.9708 396.95 93.7177C397.389 93.4647 398.484 93.0346 399.384 92.7622C400.284 92.4897 401.846 91.8145 402.854 91.2625C403.863 90.7105 405.426 90.0313 406.328 89.754C407.23 89.4767 409.027 88.6743 410.321 87.9712C411.615 87.2682 413.41 86.4685 414.311 86.1947C415.212 85.9205 417.291 85.0213 418.931 84.1956C420.571 83.3703 422.086 82.6979 422.296 82.7016C423.091 82.7151 422.31 83.5342 420.779 84.2942C419.903 84.728 418.485 85.6853 417.627 86.4204C416.768 87.156 414.986 88.3216 413.665 89.0106C412.345 89.7002 410.609 90.7809 409.807 91.4127C409.004 92.0445 406.351 93.6248 403.909 94.9244C401.468 96.2239 398.811 97.8026 398.004 98.4322C396.096 99.922 378.278 109.457 376.139 110.133C375.234 110.419 372.733 111.601 370.581 112.76C368.429 113.919 365.93 115.096 365.028 115.375C364.125 115.655 362.561 116.335 361.553 116.888C360.544 117.44 358.982 118.115 358.082 118.387C357.182 118.66 356.087 119.09 355.648 119.343C355.21 119.596 354.116 120.023 353.217 120.291C352.319 120.56 351.459 120.862 351.306 120.962C351.154 121.062 350.294 121.364 349.396 121.632C348.497 121.901 347.635 122.21 347.478 122.321C346.274 123.17 331.894 126.713 326.554 127.476C324.246 127.806 324.141 127.884 319.359 132.873C316.69 135.657 313.562 138.788 312.408 139.832C308.547 143.325 308.26 144.588 311.734 142.8C312.831 142.235 314.468 141.544 315.37 141.265C316.273 140.986 317.372 140.546 317.813 140.287C318.254 140.028 319.973 139.426 321.633 138.949C323.293 138.473 324.901 137.952 325.207 137.792C325.81 137.477 333.534 135.383 339.583 133.896C341.653 133.387 345.041 132.553 347.111 132.043C349.181 131.533 352.516 130.714 354.522 130.223C359.88 128.913 373.692 125.125 374.34 124.789C374.647 124.63 376.256 124.111 377.916 123.635C379.575 123.159 381.06 122.683 381.215 122.576C381.37 122.469 382.232 122.162 383.13 121.893C384.029 121.625 385.123 121.198 385.562 120.945C386 120.692 387.094 120.265 387.993 119.996C388.892 119.727 389.986 119.3 390.424 119.047C390.863 118.794 391.958 118.365 392.857 118.094C393.756 117.823 395.084 117.273 395.808 116.87C396.531 116.468 397.862 115.91 398.765 115.629C399.669 115.348 403.036 113.712 406.249 111.993C409.462 110.274 412.688 108.781 413.419 108.674C414.15 108.567 415.449 107.872 416.306 107.13C417.163 106.387 418.019 105.854 418.208 105.944C418.722 106.189 418.555 106.393 416.595 107.922C415.607 108.693 414.079 109.929 413.198 110.668C412.318 111.408 411.458 112.064 411.286 112.127C411.115 112.191 410.323 112.762 409.528 113.397C408.732 114.032 407.251 114.985 406.236 115.516C405.222 116.047 403.734 116.997 402.93 117.628C401.034 119.117 384.255 128.097 382.113 128.77C381.208 129.054 379.41 129.862 378.116 130.565C376.822 131.268 375.025 132.069 374.124 132.345C373.223 132.621 371.893 133.175 371.17 133.578C370.447 133.98 369.119 134.531 368.219 134.801C367.32 135.072 366.225 135.501 365.787 135.754C365.348 136.007 364.254 136.434 363.355 136.703C362.457 136.972 361.363 137.399 360.924 137.652C360.485 137.905 359.391 138.332 358.493 138.6C357.594 138.869 356.734 139.171 356.582 139.271C356.43 139.371 355.57 139.673 354.672 139.941C353.773 140.21 352.913 140.511 352.761 140.612C352.609 140.712 351.749 141.013 350.85 141.282C349.952 141.55 349.09 141.857 348.935 141.964C348.78 142.071 347.297 142.543 345.639 143.014C343.982 143.484 342.495 143.966 342.336 144.085C341.954 144.368 323.497 149.562 319.407 150.536C314.566 151.691 303.579 154.135 299.36 154.997C296.259 155.63 295.219 156.092 293.42 157.636C292.221 158.665 290.085 160.498 288.673 161.708C287.26 162.918 285.867 164.21 285.576 164.578C284.703 165.684 285.881 165.813 287.754 164.816C288.693 164.318 290.199 163.683 291.1 163.407C292.002 163.131 292.866 162.818 293.021 162.711C293.176 162.604 294.66 162.127 296.32 161.652C297.98 161.176 299.592 160.654 299.903 160.491C300.775 160.033 312.935 156.923 317.726 155.933C319.207 155.626 322.943 154.851 326.029 154.209C329.114 153.567 332.945 152.787 334.541 152.476C352.276 149.014 364.573 146.146 378.321 142.266C383.418 140.827 387.719 139.554 387.878 139.435C388.038 139.317 389.524 138.836 391.182 138.365C392.84 137.895 394.323 137.422 394.478 137.315C394.633 137.208 395.495 136.901 396.393 136.633C397.292 136.365 398.151 136.063 398.304 135.963C398.456 135.863 399.317 135.558 400.217 135.286C401.117 135.013 402.165 134.63 402.547 134.433C402.928 134.236 403.763 133.997 404.403 133.902C405.043 133.806 406.148 133.39 406.858 132.976C408.126 132.239 408.859 132.176 408.589 132.829C408.513 133.01 406.734 134.125 404.635 135.308ZM429.51 53.3994C429.319 53.3082 429.24 53.0336 429.334 52.7891C429.429 52.5447 429.664 52.4193 429.855 52.5105C430.047 52.6016 430.126 52.8763 430.031 53.1208C429.936 53.3652 429.702 53.4906 429.51 53.3994ZM362.274 178.842C362.082 178.751 362.003 178.476 362.098 178.232C362.193 177.987 362.427 177.862 362.619 177.953C362.81 178.044 362.89 178.319 362.795 178.564C362.7 178.808 362.466 178.933 362.274 178.842ZM117 243.226C116.258 242.873 115.4 244.147 113.642 248.218C112.606 250.617 111.177 253.547 110.467 254.729C109.757 255.911 108.668 257.763 108.047 258.843C106.631 261.307 105.486 262.885 104.069 264.326C103.46 264.946 102.88 265.663 102.781 265.92C102.277 267.218 105.371 266.809 107.891 265.244C109.085 264.502 109.208 264.242 113.209 253.928C115.462 248.122 117.168 243.306 117 243.226ZM107.108 235.621C106.858 235.681 106.537 236.03 106.395 236.396C106.252 236.763 106.341 237.014 106.591 236.954C106.841 236.894 107.162 236.545 107.304 236.179C107.447 235.812 107.358 235.561 107.108 235.621ZM102.75 245.921C102.106 245.615 101.254 246.639 100.083 249.127C99.4143 250.547 98.2911 252.678 97.5867 253.863C96.8826 255.048 95.8043 256.905 95.1907 257.988C94.5774 259.072 93.4699 260.737 92.73 261.688C91.99 262.639 91.2487 263.761 91.0825 264.181C90.9162 264.601 90.1152 265.701 89.3028 266.625C88.4903 267.549 87.1608 269.061 86.3482 269.986C84.1864 272.445 83.8661 273.886 85.6952 272.923C86.0719 272.724 87.7392 272.17 89.4002 271.692C91.0612 271.213 92.7321 270.599 93.1136 270.329C93.9382 269.743 103.25 246.159 102.75 245.921Z"/>
</mask>
<path fill-rule="evenodd" clip-rule="evenodd" d="M404.635 135.308C402.536 136.49 400.081 137.684 399.178 137.963C398.276 138.241 396.245 139.168 394.665 140.023C393.085 140.878 391.054 141.805 390.152 142.083C389.25 142.362 387.686 143.041 386.678 143.593C385.669 144.145 384.108 144.82 383.208 145.093C382.308 145.365 381.212 145.795 380.774 146.048C380.335 146.301 379.241 146.728 378.343 146.997C377.444 147.266 376.35 147.693 375.911 147.946C375.473 148.199 374.379 148.626 373.48 148.895C372.581 149.164 371.487 149.591 371.049 149.844C370.61 150.097 369.516 150.524 368.617 150.793C367.719 151.061 366.859 151.363 366.707 151.463C366.554 151.563 365.695 151.865 364.796 152.134C363.897 152.402 362.802 152.834 362.361 153.093C361.92 153.351 360.203 153.949 358.544 154.421C356.886 154.892 355.403 155.366 355.248 155.473C355.093 155.58 354.231 155.887 353.333 156.155C352.434 156.423 351.572 156.73 351.418 156.837C351.263 156.944 349.779 157.417 348.122 157.887C346.464 158.357 344.977 158.839 344.818 158.957C344.434 159.242 328.719 163.662 324.67 164.625C319.778 165.788 313.248 167.23 309.664 167.938C307.882 168.29 305.062 168.859 303.397 169.202C300.179 169.865 292.229 170.793 285.568 171.284C276.424 171.957 276.712 171.869 272.761 175.189C270.786 176.849 268.706 178.5 268.139 178.86C266.821 179.695 266.409 180.68 267.374 180.689C268.154 180.697 271.929 179.67 272.831 179.205C273.417 178.902 283.688 176.087 289.879 174.532C295.224 173.19 316.915 168.498 326.814 166.542C334.114 165.101 336.354 164.66 339.1 164.124C357.975 160.439 369.562 157.75 386.068 153.224C392.182 151.547 397.291 150.225 397.42 150.287C398.225 150.67 394.902 152.828 392.276 153.627C391.375 153.902 390.046 154.455 389.323 154.857C388.599 155.26 387.271 155.812 386.371 156.085C385.47 156.358 384.142 156.91 383.418 157.313C382.695 157.715 381.367 158.266 380.468 158.536C379.568 158.807 378.474 159.236 378.035 159.489C377.596 159.742 376.502 160.169 375.604 160.438C374.705 160.707 373.846 161.008 373.693 161.108C373.541 161.208 372.681 161.51 371.783 161.779C370.884 162.047 370.024 162.349 369.872 162.449C369.72 162.549 368.86 162.851 367.961 163.119C367.063 163.388 365.967 163.819 365.526 164.078C365.085 164.337 363.368 164.935 361.71 165.407C360.052 165.878 358.568 166.351 358.413 166.458C358.258 166.565 357.397 166.872 356.498 167.14C355.6 167.409 354.738 167.716 354.583 167.823C354.428 167.93 352.945 168.402 351.287 168.873C349.629 169.343 348.143 169.825 347.983 169.944C347.613 170.219 326.422 176.189 322.503 177.122C320.878 177.51 318.114 178.172 316.361 178.595C313.234 179.349 311.175 179.766 302.706 181.353C294.68 182.858 281.197 184.391 273.784 184.64C272.52 184.683 270.636 184.753 269.598 184.795C268.56 184.837 266.388 184.802 264.771 184.716C261.382 184.537 260.315 184.892 257.586 187.109C254.988 189.218 255.164 190.198 257.989 189.362C261.527 188.315 266.722 187.227 269.145 187.026C275.073 186.534 279.331 186.239 281.442 186.173C282.706 186.133 284.974 186.03 286.483 185.942C289.048 185.794 290.422 185.741 295.698 185.59C300.975 185.438 302.348 185.386 304.913 185.237C306.422 185.15 308.69 185.046 309.954 185.007C317.247 184.779 345.481 181.385 352.37 179.907C358.657 178.559 361.05 178.489 359.685 179.693C359.453 179.899 357.346 180.615 355.003 181.285C352.661 181.955 350.489 182.638 350.178 182.803C349.626 183.095 347.232 183.741 336.855 186.395C334.084 187.104 330.689 187.975 329.312 188.329C326.155 189.142 323.087 189.825 319.246 190.569C317.59 190.891 314.775 191.446 312.99 191.804C301.884 194.033 284.669 196.264 276.603 196.52C275.339 196.56 273.456 196.627 272.418 196.67C271.38 196.712 268.265 196.606 265.495 196.433C260.769 196.139 259.217 195.985 255.363 195.429C254.503 195.305 253.246 195.161 252.569 195.109C251.892 195.057 250.879 194.796 250.318 194.529C249.185 193.991 247.489 194.608 245.302 196.353C244.506 196.988 243.551 197.677 243.18 197.882C242.809 198.088 242.433 198.443 242.345 198.67C242.049 199.435 243.231 199.59 246.262 199.186C250.088 198.676 255.617 198.749 263.822 199.416C270.132 199.929 275.523 200.367 280.024 200.73C287.535 201.336 298.457 201.743 302.802 201.579C303.897 201.537 305.778 201.474 306.984 201.437C314.12 201.219 327.183 199.85 332.468 198.766C334.195 198.412 336.818 197.872 338.298 197.566C343.079 196.579 355.248 193.467 356.121 193.008C356.432 192.846 358.044 192.323 359.704 191.847C361.364 191.372 362.853 190.885 363.012 190.766C363.172 190.646 364.159 190.337 365.204 190.079C366.249 189.821 367.286 189.45 367.508 189.254C367.973 188.844 368.633 189.049 368.433 189.541C368.212 190.087 361.825 193.578 360.061 194.119C359.16 194.394 357.363 195.196 356.069 195.899C354.775 196.602 352.98 197.401 352.079 197.675C351.179 197.949 350.083 198.38 349.644 198.633C349.206 198.886 348.112 199.313 347.213 199.581C346.315 199.85 345.455 200.152 345.302 200.252C345.15 200.352 344.29 200.654 343.392 200.922C342.493 201.191 341.634 201.492 341.481 201.592C341.329 201.693 340.469 201.994 339.571 202.263C338.672 202.531 337.809 202.842 337.652 202.953C337.148 203.311 322.202 207.393 318.96 208.058C317.234 208.412 314.409 208.994 312.682 209.351C307.642 210.392 296.11 211.582 288.933 211.801C287.728 211.838 285.844 211.908 284.746 211.957C282.025 212.078 267.451 211.232 264.468 210.779C262.82 210.529 260.367 210.175 258.12 209.861C256.126 209.582 253.412 209.034 250.467 208.315C249.274 208.024 247.238 207.528 245.942 207.213C244.646 206.899 242.338 206.267 240.813 205.81C234.491 203.915 234.606 203.931 233.496 204.871C232.915 205.362 232.068 205.943 231.613 206.161C231.159 206.379 230.136 207.077 229.34 207.712C228.545 208.347 227.576 209.044 227.186 209.26C225.382 210.259 227.082 210.8 233.025 211.117C243.087 211.652 244.53 211.792 248.489 212.615C249.434 212.812 251 213.083 251.968 213.218C252.937 213.354 254.503 213.625 255.448 213.822C256.393 214.018 257.959 214.29 258.928 214.425C259.896 214.56 261.506 214.838 262.505 215.042C263.504 215.246 265.138 215.58 266.137 215.784C267.136 215.988 268.746 216.266 269.715 216.401C270.684 216.536 272.25 216.807 273.195 217.004C274.82 217.342 276.539 217.614 279.9 218.066C282.487 218.414 284.463 218.695 285.961 218.929C286.764 219.055 288.413 219.23 289.627 219.319C290.841 219.407 293.087 219.601 294.618 219.749C297.622 220.04 312.468 220.75 316.494 220.796C319.892 220.835 322.031 220.744 331.912 220.141C333.597 220.038 339.987 219.374 346.112 218.664C352.237 217.954 357.303 217.564 357.37 217.798C357.438 218.033 357.196 218.287 356.832 218.363C356.469 218.44 355.537 218.702 354.761 218.946C352.308 219.718 347.505 220.897 344.271 221.522C335.071 223.299 331.908 223.81 323.583 224.86C313.574 226.122 305.723 226.795 298.827 226.981C297.68 227.012 295.799 227.076 294.646 227.123C289.296 227.342 269.28 226.496 265.213 225.878C263.591 225.632 261.123 225.275 258.962 224.973C258.101 224.853 256.647 224.65 255.732 224.522C254.818 224.394 253.252 224.123 252.253 223.919C251.254 223.714 249.533 223.365 248.428 223.142C240.544 221.55 232.231 218.984 224.662 215.808L219.964 213.837L218.366 215.023C217.488 215.675 216.176 216.519 215.452 216.899C214.728 217.278 213.486 218.108 212.692 218.744C211.897 219.379 210.84 220.089 210.342 220.32C209.844 220.552 209.301 221.091 209.136 221.518C208.902 222.12 209.039 222.311 209.737 222.361C210.234 222.396 211.3 222.52 212.106 222.637C212.912 222.753 214.32 222.953 215.235 223.081C216.149 223.209 217.715 223.48 218.714 223.684C219.713 223.888 221.392 224.228 222.444 224.44C227.628 225.481 228.524 225.672 230.448 226.144C231.588 226.423 233.468 226.844 234.625 227.079C235.782 227.314 237.661 227.734 238.801 228.014C239.941 228.293 241.777 228.704 242.882 228.928C243.987 229.151 245.794 229.519 246.898 229.745C249.984 230.378 252.562 230.893 254.461 231.256C255.412 231.437 257.049 231.765 258.098 231.984C259.148 232.203 260.8 232.493 261.769 232.628C262.737 232.764 264.303 233.035 265.248 233.232C266.193 233.428 267.715 233.694 268.63 233.822C269.545 233.949 270.998 234.152 271.859 234.272C272.72 234.393 274.172 234.599 275.085 234.731C275.999 234.863 277.451 235.07 278.312 235.19C279.173 235.31 280.491 235.501 281.241 235.615C281.992 235.729 283.598 235.895 284.812 235.984C286.026 236.073 288.819 236.291 291.02 236.468C297.061 236.954 310.734 237.537 313.654 237.432C316.847 237.318 315.291 238.085 310.881 238.799C305.211 239.717 295.909 240.602 289.963 240.787C288.7 240.827 286.427 240.942 284.912 241.044C283.398 241.145 281.051 241.21 279.698 241.189C278.345 241.167 275.751 241.153 273.933 241.158C268.208 241.172 253.308 240.43 250.556 239.993C249.754 239.865 248.436 239.672 247.627 239.564C245.76 239.313 243.509 238.998 241.267 238.675C238.241 238.239 235.093 237.54 228.54 235.85C225.636 235.101 208.299 227.002 205.998 225.32C204.564 224.272 204.499 224.277 201.705 225.713C200.144 226.514 198.212 227.688 197.413 228.321C196.613 228.954 194.377 230.307 192.444 231.328C190.511 232.349 188.81 233.494 188.663 233.872C188.332 234.724 188.476 234.789 190.769 234.823C191.785 234.838 193.271 234.956 194.072 235.086C195.508 235.319 197.064 235.543 200.325 235.986C204.465 236.549 211.033 238.465 223.029 242.609C241.975 249.154 245.926 250.301 257.056 252.485C258.058 252.682 259.695 253.009 260.694 253.214C261.693 253.417 263.301 253.699 264.268 253.838C265.236 253.977 266.64 254.186 267.39 254.302C268.139 254.417 270.293 254.608 272.176 254.726C276.658 255.007 277.718 255.118 279.312 255.479C280.555 255.761 280.58 255.803 279.702 256.144C278.451 256.63 271.683 257.603 269.617 257.595C268.712 257.591 266.938 257.619 265.675 257.657C259.281 257.852 252.902 257.674 245.876 257.106C243.676 256.928 240.882 256.71 239.669 256.62C238.455 256.532 236.848 256.366 236.098 256.252C235.348 256.138 233.943 255.931 232.976 255.792C232.008 255.652 230.444 255.377 229.499 255.181C228.554 254.984 226.988 254.713 226.019 254.578C225.05 254.442 223.441 254.165 222.442 253.961C221.443 253.756 219.721 253.407 218.617 253.184C217.512 252.961 215.633 252.54 214.44 252.249C213.248 251.958 211.213 251.461 209.918 251.144C200.833 248.921 192.306 245.982 180.671 241.064L177.797 239.85L170.674 243.698C166.757 245.814 163.477 247.738 163.386 247.972C163.203 248.445 164.409 248.715 167.182 248.823C169.121 248.898 171.03 249.163 173.838 249.747C174.783 249.944 176.349 250.215 177.318 250.35C179.403 250.642 182.082 251.181 185.069 251.91C186.261 252.201 188.254 252.687 189.498 252.989C195.326 254.407 196.64 254.739 198.989 255.383C200.373 255.762 202.639 256.384 204.024 256.763C205.408 257.143 207.643 257.725 208.99 258.056C210.337 258.387 212.529 258.957 213.863 259.322C216.125 259.942 217.451 260.276 223.26 261.689C224.504 261.992 226.497 262.478 227.69 262.769C229.702 263.26 230.602 263.452 235.789 264.494C236.841 264.706 238.52 265.046 239.519 265.25C241.446 265.644 243.865 266.012 249.454 266.763C250.263 266.871 251.58 267.065 252.382 267.192C255.198 267.639 268.418 268.295 272.021 268.165C275.215 268.051 273.658 268.818 269.248 269.532C262.179 270.676 254.245 271.46 246.796 271.752C241.307 271.967 223.682 271.21 219.704 270.589C218.902 270.463 217.583 270.271 216.775 270.163C213.413 269.711 211.694 269.439 210.069 269.101C209.124 268.904 207.557 268.636 206.587 268.504C205.617 268.372 203.85 268.02 202.661 267.721C201.472 267.422 199.439 266.919 198.143 266.602C194.152 265.625 190.722 264.651 186.9 263.409C182.498 261.979 160.027 251.515 159.411 250.609C159.073 250.113 157.402 250.814 151.896 253.761C148.002 255.845 144.742 257.739 144.652 257.971C144.562 258.203 145.039 258.529 145.712 258.696C146.866 258.984 147.468 259.08 151.541 259.626C156.457 260.285 156.848 260.365 161.199 261.587C169.071 263.798 170.271 264.199 190.51 271.387C200.051 274.775 212.115 278.602 216.964 279.779C218.26 280.094 220.296 280.59 221.488 280.881C223.543 281.382 225.34 281.763 229.495 282.578C230.497 282.775 232.175 283.115 233.225 283.334C234.274 283.553 235.925 283.846 236.892 283.986C237.859 284.125 239.264 284.334 240.013 284.449C240.763 284.565 242.918 284.753 244.803 284.867C246.687 284.982 248.941 285.154 249.812 285.251C250.682 285.347 252.144 285.335 253.06 285.223C254.848 285.006 256.031 285.742 254.998 286.429C254.677 286.642 253.009 286.939 251.291 287.088C245.887 287.559 241.022 287.9 238.752 287.967C237.547 288.002 235.663 288.072 234.566 288.121C231.743 288.248 214.861 287.294 211.853 286.837C210.204 286.587 207.752 286.232 205.504 285.919C204.589 285.791 203.067 285.525 202.122 285.329C201.177 285.132 199.611 284.863 198.64 284.732C197.67 284.599 195.946 284.257 194.809 283.97C193.673 283.683 191.795 283.258 190.637 283.026C186.827 282.263 179.21 280.029 173.039 277.866C168.303 276.206 146.858 266.13 141.069 262.846L137.484 260.812L134.415 262.422C132.727 263.307 130.61 264.265 129.71 264.55C125.774 265.798 122.805 268.237 125.03 268.396C125.527 268.432 126.636 268.566 127.494 268.694C128.352 268.822 129.76 269.022 130.623 269.138C131.485 269.254 133.05 269.528 134.1 269.747C135.15 269.966 136.871 270.316 137.925 270.524C146.46 272.21 155.56 275.248 174.64 282.779C189.233 288.541 199.432 292.057 206.576 293.791C207.872 294.106 209.908 294.602 211.1 294.893C214.046 295.612 216.759 296.16 218.753 296.439C219.668 296.566 221.121 296.769 221.982 296.889C222.844 297.01 224.253 297.207 225.114 297.327C225.975 297.447 227.335 297.65 228.137 297.777C228.939 297.904 231.136 298.103 233.021 298.218C234.905 298.333 237.702 298.543 239.236 298.684C240.77 298.825 242.734 298.912 243.601 298.877C244.468 298.843 245.222 298.969 245.276 299.158C245.378 299.513 237.579 300.909 234.596 301.07C233.669 301.121 231.676 301.231 230.168 301.317C228.66 301.403 226.391 301.506 225.127 301.548C223.863 301.589 222.17 301.659 221.365 301.704C219.394 301.813 205.606 301.226 203.898 300.961C202.172 300.692 199.637 300.325 197.744 300.071C196.935 299.962 195.526 299.765 194.613 299.633C193.699 299.502 192.203 299.289 191.288 299.162C190.374 299.034 188.808 298.762 187.809 298.558C186.81 298.354 185.088 298.005 183.984 297.782C178.995 296.774 172.39 294.96 163.008 292.021C153.803 289.137 133.136 279.928 121.059 273.327L116.552 270.864L114.334 271.529C113.114 271.894 111.135 272.719 109.936 273.361C108.736 274.002 107.138 274.66 106.385 274.822C103.523 275.437 103.783 276.74 106.962 277.717C108.032 278.046 110.4 278.771 112.226 279.33C114.052 279.889 126.661 285.437 140.247 291.659C163.884 302.483 172.482 306.133 179.752 308.424C186.829 310.655 193.959 312.421 198.386 313.039C200.503 313.335 203.556 313.947 205.086 314.383C205.699 314.558 206.633 314.739 207.16 314.787C207.838 314.848 207.988 314.99 207.671 315.269C207.424 315.487 206.956 315.541 206.632 315.388C206.307 315.235 205.438 315.277 204.701 315.48C203.329 315.858 192.769 315.381 188.643 314.756C185.715 314.312 183.703 314.018 182.199 313.815C181.336 313.7 179.771 313.425 178.721 313.206C177.672 312.987 175.993 312.647 174.991 312.451C165.341 310.557 160.601 309.261 148.785 305.283C143.591 303.536 117.544 291.145 113.253 288.382C109.825 286.174 106.899 284.139 103.343 281.488C98.6677 278.003 99.0708 278.161 96.6507 278.872C95.415 279.236 94.0442 279.743 93.604 280C93.1641 280.257 92.0676 280.69 91.1675 280.963C90.2677 281.235 89.2327 281.611 88.8682 281.799C88.5033 281.986 87.6045 282.27 86.8707 282.427C86.1371 282.585 85.39 283.092 85.2106 283.554C84.9249 284.29 85.0803 284.445 86.4762 284.812C92.2651 286.334 95.1202 287.461 104.278 291.839C109.926 294.539 116.54 297.951 118.977 299.421C121.413 300.892 125.4 303.299 127.836 304.771C133.568 308.233 160.859 321.256 165.178 322.59C168.654 323.663 171.663 324.434 175.03 325.115C176.135 325.338 177.856 325.687 178.855 325.891C179.854 326.095 181.42 326.367 182.334 326.495C183.249 326.622 184.654 326.829 185.457 326.955C186.259 327.08 187.908 327.257 189.121 327.349C193.914 327.711 196.262 328.086 196.115 328.465C195.969 328.843 191.18 329.673 189.01 329.697C187.884 329.708 185.977 329.749 184.771 329.787C182.102 329.871 176.669 329.632 172.904 329.265C171.373 329.116 169.126 328.925 167.911 328.84C166.695 328.756 164.933 328.512 163.995 328.298C163.056 328.085 161.496 327.8 160.527 327.665C154.704 326.852 143.947 323.969 134.923 320.805C129.292 318.83 109.789 309.546 104.62 306.379C97.3118 301.902 93.7353 299.347 86.6083 293.512C85.7902 292.842 84.4489 291.752 83.6279 291.09C82.8071 290.427 81.5172 289.325 80.7617 288.64C77.8591 286.007 77.8251 285.994 75.4619 286.695C74.2236 287.063 72.9107 287.52 72.5448 287.712C72.1783 287.903 71.2785 288.189 70.5447 288.347C69.8111 288.504 69.0755 288.981 68.9107 289.406C68.6408 290.102 69.1878 290.477 74.3667 293.158C79.8938 296.018 82.6355 297.758 86.3697 300.774C90.0887 303.779 90.969 304.511 92.2963 305.706C93.0531 306.388 94.1558 307.375 94.7466 307.899C95.3374 308.424 96.5518 309.601 97.4453 310.515C99.5743 312.694 102.654 315.696 104.181 317.083C104.853 317.693 106.133 318.94 107.026 319.855C107.919 320.771 109.204 322.004 109.882 322.597C110.56 323.189 111.628 324.145 112.256 324.72C115.143 327.365 116.094 328.202 117.485 329.324C118.306 329.986 119.719 331.13 120.626 331.864C127.848 337.714 134.865 342.275 143.529 346.748C146.98 348.53 149.738 350.154 149.659 350.358C149.058 351.907 145.255 350.465 126.638 341.628C112.294 334.821 108.72 332.756 100.091 326.295C98.9925 325.473 97.2637 324.185 96.2497 323.435C95.2356 322.685 93.8234 321.539 93.1115 320.888C92.3996 320.237 91.3028 319.234 90.6752 318.659C90.0472 318.084 88.9485 317.087 88.2337 316.444C87.5188 315.801 86.3844 314.775 85.713 314.166C85.0416 313.557 83.9724 312.603 83.3375 312.046C82.7022 311.49 81.06 309.86 79.6878 308.425C75.5339 304.081 69.6435 298.064 67.4233 295.899C66.271 294.774 64.9188 293.439 64.4184 292.933C63.9183 292.425 63.1849 291.857 62.7892 291.668C61.8784 291.235 51.4282 294.052 51.134 294.81C50.8715 295.487 51.994 296.469 55.7545 298.854C59.2175 301.051 61.2388 302.634 63.3494 304.804C66.5566 308.1 73.454 315.629 75.8144 318.409C79.5761 322.838 89.0724 333.23 90.4422 334.415C91.1219 335.003 92.226 335.987 92.8958 336.6C93.5655 337.213 94.822 338.282 95.6879 338.975C96.5538 339.668 97.9641 340.819 98.8219 341.533C99.6797 342.247 101.44 343.454 102.733 344.215C104.985 345.54 105.782 346.46 105.441 347.338C105.243 347.848 91.1792 340.74 86.6391 337.837C82.6125 335.261 79.343 332.968 77.1507 331.184C76.245 330.447 74.8325 329.301 74.0115 328.639C73.1908 327.977 71.9707 326.933 71.301 326.32C69.5023 324.672 67.6333 322.996 66.3267 321.858C64.9466 320.656 53.0569 307.653 50.9722 305.065C48.3311 301.788 46.7377 299.84 45.2792 298.105L43.8414 296.395L40.7824 297.199C32.8499 299.282 29.5119 300.05 21.683 301.589C19.8403 301.951 17.2188 302.486 15.8572 302.778C14.4956 303.071 10.7704 303.648 7.57923 304.061C2.2573 304.751 1.7493 304.732 1.44542 303.834C1.13363 302.912 1.12995 299.935 1.43649 296.368C1.51106 295.503 1.29766 293.655 0.962958 292.26C0.376559 289.818 0.673217 288.427 1.67844 288.906C2.47953 289.287 25.6707 286.548 36.2335 284.824L41.0791 284.033L43.0377 279.798C44.1148 277.468 46.1167 273.134 47.4862 270.165C51.9665 260.454 58.2828 247.631 62.93 238.813C64.3781 236.065 65.1554 234.639 68.7426 228.152C69.5033 226.776 70.7211 224.572 71.4495 223.253C73.2745 219.949 74.9681 217.07 76.3508 214.923C76.9933 213.925 78.0051 212.274 78.5995 211.254C80.2228 208.468 81.5531 206.394 83.257 203.993C84.1023 202.802 85.6669 200.585 86.7341 199.066C87.8014 197.546 88.8771 196.174 89.1242 196.017C89.3715 195.859 89.7366 195.311 89.9358 194.797C90.299 193.861 91.3046 193.079 91.8264 193.328C92.2078 193.509 91.5962 194.997 91.0028 195.331C90.7379 195.48 90.0077 196.661 89.3798 197.955C88.752 199.249 87.485 201.727 86.5643 203.461C83.1294 209.93 79.4557 218.463 70.1948 241.481C64.963 254.486 59.9734 266.447 59.1067 268.062C56.2262 273.428 55.1915 275.118 53.0623 277.93C51.7682 279.639 51.0143 280.937 51.114 281.283C51.2137 281.629 52.2686 281.625 53.8396 281.273L56.4027 280.698L58.0768 277.166C61.069 270.853 63.8481 265.144 65.6666 261.574C70.9863 251.133 71.4422 250.254 75.5205 242.569C76.3489 241.008 77.7238 238.404 78.5761 236.783C79.4285 235.161 80.7734 232.661 81.5643 231.228C82.3554 229.794 83.5983 227.542 84.3265 226.224C85.0547 224.905 86.2486 222.807 86.9792 221.562C87.7098 220.317 88.8769 218.266 89.5728 217.005C90.2686 215.743 91.409 213.738 92.1072 212.55C92.8053 211.362 93.8924 209.51 94.5224 208.434C95.1527 207.358 96.1937 205.662 96.8361 204.665C97.4785 203.667 98.4904 202.016 99.0847 200.996C99.6791 199.975 100.691 198.324 101.333 197.327C101.976 196.329 102.988 194.678 103.582 193.658C104.176 192.638 105.132 191.079 105.707 190.194C107.081 188.076 108.718 185.514 109.9 183.633C110.426 182.796 111.547 181.139 112.392 179.948C113.237 178.757 114.786 176.532 115.834 175.004C119.152 170.163 124.748 162.489 126.308 160.638C127.136 159.656 128.552 157.96 129.454 156.87C130.355 155.779 132.038 153.795 133.193 152.463C134.348 151.13 135.729 149.484 136.262 148.806C136.795 148.128 137.535 147.447 137.909 147.293C139.255 146.736 138.484 148.688 136.086 151.903C134.782 153.651 133.314 155.719 132.822 156.499C132.331 157.278 131.406 158.734 130.767 159.733C130.127 160.732 129.089 162.429 128.459 163.505C127.829 164.581 126.742 166.433 126.044 167.621C119.773 178.29 112.592 192.816 103.124 213.977C92.8917 236.848 86.1228 250.918 81.9435 258.001C81.2433 259.188 80.1545 261.039 79.5245 262.116C76.8368 266.704 73.6906 271.189 71.7928 273.137C71.2471 273.697 70.4386 274.753 69.9963 275.484C68.8693 277.345 69.5822 277.541 73.4896 276.446C76.2434 275.675 76.7949 275.344 77.532 274.026C80.5267 268.671 81.3607 267.106 83.0555 263.665C85.0816 259.552 87.9882 253.451 91.799 245.315C93.1024 242.533 95.2353 237.979 96.5385 235.197C103.495 220.344 109.721 207.515 112.991 201.296C117.414 192.882 119.506 189.037 121.58 185.507C122.278 184.319 123.395 182.421 124.061 181.29C124.726 180.159 125.787 178.353 126.417 177.277C127.047 176.201 128.032 174.597 128.606 173.712C129.181 172.827 130.104 171.371 130.658 170.476C131.212 169.582 132.269 168.07 133.006 167.118C133.742 166.165 134.517 164.948 134.728 164.414C134.939 163.88 135.316 163.394 135.566 163.334C135.816 163.274 136.195 162.777 136.407 162.229C136.791 161.24 137.788 160.442 138.322 160.697C138.707 160.88 138.089 162.369 137.492 162.697C137.224 162.845 136.214 164.722 135.248 166.869C134.281 169.015 132.087 173.895 130.371 177.712C126.229 186.924 111.227 224.68 111.632 224.873C112.36 225.219 113.208 224.02 114.841 220.34C116.942 215.605 120.715 208.181 124.591 201.158C125.382 199.724 126.624 197.473 127.353 196.154C128.081 194.835 129.248 192.784 129.946 191.596C130.644 190.408 131.732 188.556 132.362 187.48C132.992 186.404 134.004 184.753 134.61 183.811C135.217 182.869 136.207 181.326 136.811 180.382C137.414 179.439 138.348 177.988 138.887 177.158C139.425 176.328 140.296 174.965 140.821 174.129C142.832 170.93 150.365 160.497 151.008 160.022C152.072 159.235 152.242 159.939 151.366 161.509C147.152 169.063 145.228 172.701 142.523 178.231C139.869 183.656 122.003 228.757 122.427 228.959C123.188 229.321 124.051 228.006 125.986 223.532C128.358 218.048 132.354 209.919 136.89 201.352C137.747 199.733 139.145 197.081 139.998 195.459C140.85 193.838 142.195 191.338 142.986 189.905C143.777 188.471 145.02 186.219 145.748 184.9C146.477 183.582 147.644 181.531 148.342 180.343C149.04 179.155 150.181 177.209 150.876 176.02C152.16 173.826 153.679 171.242 155.653 167.894C156.254 166.876 157.27 165.228 157.913 164.23C158.555 163.233 159.567 161.582 160.162 160.561C160.756 159.541 161.739 157.935 162.345 156.993C162.952 156.051 163.878 154.596 164.404 153.76C164.929 152.924 166.051 151.267 166.897 150.076C167.742 148.886 168.902 147.187 169.473 146.3C170.592 144.561 177.208 135.195 178.657 133.295C183.26 127.265 185.091 124.955 186.384 123.545C187.217 122.638 188.138 121.562 188.431 121.153C188.723 120.744 189.011 120.577 189.07 120.782C189.129 120.987 188.752 121.661 188.231 122.279C187.71 122.897 186.704 124.499 185.995 125.839C185.286 127.179 184.18 129.092 183.538 130.089C182.162 132.224 180.453 135.128 178.695 138.316C178 139.577 176.831 141.628 176.098 142.872C169.265 154.471 159.186 176.199 145.887 208.005C134.245 235.843 127.993 248.549 121.952 256.642C118.903 260.727 118.778 261.463 121.353 260.169C122.17 259.758 123.577 259.194 124.479 258.916C125.381 258.637 126.895 257.957 127.843 257.403L129.566 256.397L137.495 236.435C141.856 225.456 146.52 214.151 147.86 211.314C151.896 202.763 154.34 197.752 156.04 194.539C156.927 192.862 158.328 190.211 159.153 188.649C159.978 187.087 161.301 184.636 162.092 183.202C162.883 181.768 164.126 179.516 164.854 178.198C165.582 176.879 166.725 174.876 167.393 173.746C168.062 172.616 169.178 170.718 169.873 169.529C170.569 168.34 171.707 166.393 172.403 165.204C175.732 159.513 175.905 159.23 179.036 154.407C179.574 153.577 180.471 152.168 181.029 151.275C181.587 150.382 182.735 148.677 183.58 147.487C184.425 146.296 185.909 144.159 186.879 142.738C190.244 137.804 196.275 129.567 196.814 129.169C197.112 128.948 197.51 128.842 197.699 128.932C198.097 129.121 198.045 129.218 192.72 138.278C192.022 139.466 190.855 141.517 190.127 142.836C189.399 144.155 188.153 146.405 187.359 147.837C185.963 150.353 184.459 153.352 180.055 162.396C176.193 170.331 171.112 182.243 162.226 204.198C152.181 229.02 148.97 236.114 145.019 242.215C144.41 243.156 143.478 244.608 142.949 245.442C141.451 247.802 140.353 249.258 139.149 250.484C137.9 251.755 137.338 252.908 137.85 253.152C138.038 253.241 139.895 252.405 141.975 251.293C144.055 250.181 146.497 249.041 147.4 248.761C150.57 247.775 150.231 248.49 156.368 229.845C159.518 220.274 169.839 193.642 173.683 185.166C178.717 174.062 183.773 163.902 188.778 154.832C189.569 153.398 190.812 151.147 191.54 149.828C193.366 146.524 195.059 143.645 196.442 141.498C197.084 140.501 198.096 138.85 198.691 137.829C199.285 136.809 200.268 135.203 200.874 134.261C201.481 133.319 202.407 131.864 202.933 131.028C203.458 130.192 204.58 128.534 205.426 127.344C206.271 126.154 207.447 124.462 208.037 123.585C210.139 120.462 211.454 120.414 209.835 123.519C205.315 132.184 205.301 132.22 178.985 200.46C173.401 214.942 169.519 224.572 168.525 226.417C165.654 231.743 163.211 235.754 161.191 238.46C158.142 242.545 158.017 243.281 160.592 241.987C161.409 241.577 162.817 241.009 163.722 240.726C164.626 240.443 167.561 239.018 170.245 237.561C174.52 235.239 175.152 234.756 175.345 233.656C175.466 232.967 175.787 231.382 176.057 230.135C176.328 228.888 176.793 226.74 177.091 225.361C178.408 219.263 179.959 213.441 182.604 204.684C184.591 198.101 203.11 150.394 206.757 142.459C210.683 133.92 213.723 127.54 215.858 123.359C216.87 121.378 218.327 118.399 219.097 116.738C220.419 113.888 221.282 112.776 221.934 113.086C222.091 113.161 221.353 115.713 220.295 118.757C214.844 134.432 210 150.308 205.738 166.461C204.341 171.757 201.304 182.706 199.481 189.021C194.431 206.514 189.537 219.278 184.946 226.932C184.5 227.674 184.282 228.407 184.426 228.67C184.687 229.146 193.168 224.871 194.982 223.351C196.067 222.442 196.29 221.721 197.371 215.663C197.585 214.462 197.982 212.459 198.253 211.212C198.525 209.965 198.99 207.817 199.287 206.438C202.607 191.059 207.663 175.182 216.433 152.595C225.471 129.317 227.737 124.274 228.909 124.832C229.234 124.987 228.726 127.243 227.193 132.441C226.557 134.6 225.716 137.694 225.325 139.319C224.077 144.498 223.259 147.863 222.571 150.646C222.203 152.136 221.73 154.34 221.522 155.544C221.313 156.748 220.921 158.753 220.65 160C220.379 161.246 219.936 163.286 219.664 164.533C219.393 165.78 218.999 167.784 218.788 168.987C218.576 170.189 218.182 172.193 217.911 173.44C217.64 174.687 217.172 176.834 216.872 178.212C216.572 179.589 216.099 181.793 215.821 183.109C214.569 189.038 213.379 192.761 209.614 202.534C205.882 212.224 205.179 213.722 202.801 217.063C201.883 218.354 202.942 218.677 204.316 217.525C204.92 217.019 206.487 216.047 207.798 215.365C209.109 214.684 211.074 213.408 212.165 212.53C214.28 210.829 214.604 210.119 215.412 205.426C215.608 204.289 215.935 202.429 216.137 201.295C216.34 200.161 216.635 198.465 216.793 197.526C217.71 192.075 218.343 188.976 219.559 183.967C219.922 182.474 220.541 179.925 220.936 178.303C225.922 157.799 229.908 145.489 239.961 119.561C247.849 99.2142 250.841 92.0923 251.39 92.3535C252.1 92.6917 251.845 94.3065 250.421 98.4832C248.675 103.604 247.986 106.042 244.223 120.406C243.109 124.657 242.133 128.681 241.447 131.854C241.134 133.298 240.594 135.647 240.246 137.075C239.66 139.485 239.41 140.604 238.018 147.073C236.626 153.541 236.377 154.66 235.79 157.07C235.442 158.498 234.902 160.847 234.59 162.291C234.277 163.735 233.725 166.138 233.362 167.631C233 169.124 232.38 171.672 231.986 173.295C228.943 185.806 225.768 195.551 222.404 202.699C221.191 205.275 221.025 205.86 221.447 206.061C221.728 206.195 222.438 205.901 223.025 205.409C223.612 204.918 224.878 204.094 225.838 203.581C227.976 202.437 229.727 200.712 229.657 199.819C229.628 199.453 229.836 198.197 230.118 197.026C230.4 195.856 230.889 193.718 231.204 192.275C232.089 188.225 233.055 184.329 234.154 180.383C234.706 178.402 235.637 175.053 236.222 172.942C241.628 153.446 247.094 137.385 257.161 111.425C267.698 84.253 269.604 79.961 270.868 80.5626C271.027 80.6384 269.975 83.988 268.53 88.0067C264.863 98.2026 262.445 106.018 259.548 117.038C258.745 120.092 258.346 121.699 256.566 129.046C256.188 130.604 255.583 133.1 255.22 134.593C254.857 136.086 254.332 138.383 254.052 139.697C253.772 141.012 253.282 143.268 252.965 144.709C252.647 146.151 252.17 148.353 251.905 149.602C250.805 154.784 250.306 157.029 249.681 159.602C249.319 161.095 248.705 163.646 248.317 165.272C247.659 168.031 244.643 177.813 243.68 180.31C243.041 181.968 238.95 190.636 237.869 192.622C236.288 195.528 237.528 195.752 240.775 193.145C241.567 192.509 242.351 191.934 242.516 191.868C242.681 191.801 243.712 191.022 244.806 190.136C246.669 188.628 246.814 188.401 247.076 186.608C247.531 183.489 247.955 181.147 248.383 179.389C248.604 178.481 249.015 176.662 249.296 175.348C255.307 147.253 270.789 107.367 287.295 77.4559C290.716 71.2558 291.657 69.5383 292.499 67.9533C294.355 64.4583 295.745 64.7458 293.966 68.2567C292.029 72.0757 276.56 112.302 274.666 118.442C272.204 126.424 270.358 132.632 269.144 137.009C266.636 146.056 265.885 148.737 264.818 152.458C264.196 154.624 263.12 158.377 262.427 160.799C261.733 163.22 259.862 168.787 258.269 173.169C255.911 179.657 255.465 181.181 255.868 181.373C256.14 181.503 256.674 181.301 257.053 180.925C257.432 180.549 258.05 180.073 258.426 179.867C258.801 179.661 260 178.775 261.09 177.897C263.194 176.201 263.544 175.441 264.309 170.91C266.154 159.976 268.215 151.742 273.496 134.209C275.136 128.764 291.404 86.5214 294.875 78.6948C296.737 74.4969 297.015 74.0526 297.607 74.3343C298.221 74.6266 298.076 75.171 295.456 82.394C293.911 86.6544 292.112 92.0186 291.459 94.3144C289.722 100.42 288.321 105.492 287.344 109.206C286.541 112.261 286.142 113.867 284.362 121.215C283.984 122.773 283.367 125.322 282.989 126.88C282.612 128.438 281.994 130.988 281.616 132.546C281.239 134.104 280.609 136.707 280.216 138.33C278.52 145.34 277.244 149.354 273.531 159.371C270.425 167.747 269.686 170.047 270.046 170.219C270.298 170.338 272.348 168.913 274.601 167.051C278.136 164.13 278.742 163.461 279.016 162.175C279.19 161.356 279.537 159.715 279.785 158.53C281.164 151.958 282.321 146.726 283.102 143.522C290.922 111.439 306.784 69.7282 322.525 39.8567C323.44 38.1202 324.665 35.7413 325.248 34.5705C325.83 33.3995 326.523 32.3191 326.786 32.1698C327.05 32.0201 327.585 31.078 327.974 30.0757C328.632 28.3786 329.555 27.4055 330.209 27.717C330.604 27.9051 329.28 31.173 328.678 31.4951C328.209 31.7462 322.797 44.5 318.743 54.9073C316.296 61.19 310.679 77.4775 308.993 83.1778C305.501 94.9851 304.361 99.104 302.775 105.625C302.38 107.247 301.735 109.902 301.34 111.525C300.945 113.147 300.264 115.844 299.826 117.518C299.387 119.192 298.695 121.943 298.286 123.631C296.204 132.244 290.113 149.444 287.476 154.161C286.658 155.623 286.582 155.974 287.037 156.19C287.34 156.334 288.102 155.927 288.731 155.285C289.36 154.643 291.5 152.787 293.485 151.159C297.015 148.266 297.102 148.157 297.374 146.296C297.527 145.249 297.799 143.574 297.979 142.574C298.159 141.573 298.453 139.877 298.633 138.804C298.813 137.731 299.141 136.11 299.362 135.201C299.583 134.293 299.994 132.474 300.275 131.16C300.556 129.846 301.083 127.549 301.446 126.056C301.808 124.563 302.426 122.014 302.819 120.391C306.867 103.66 315.265 79.3384 324.325 58.11C326.8 52.3086 327.726 50.7581 328.495 51.1242C328.65 51.198 328.145 53.1498 327.373 55.461C325.211 61.9327 322.623 70.2515 321.452 74.4957C320.869 76.6078 319.94 79.9567 319.388 81.9388C318.836 83.9207 318.063 86.8698 317.67 88.4933C317.277 90.1162 316.659 92.6656 316.297 94.1586C315.934 95.6515 315.382 98.0543 315.069 99.4984C314.757 100.942 314.216 103.292 313.869 104.719C313.521 106.147 312.981 108.496 312.669 109.941C312.041 112.839 311.156 116.516 309.883 121.516C309.422 123.324 307.66 128.587 305.967 133.211C303.604 139.665 302.993 141.669 303.337 141.833C303.583 141.95 305.715 140.299 308.073 138.163C312.768 133.911 312.745 133.951 314.096 127.603C315.306 121.916 315.746 119.941 316.403 117.247C319.513 104.49 323.204 92.7445 330.368 72.8165C333.125 65.1501 335.581 58.3814 335.829 57.775C340.258 46.9061 347.406 30.1086 349.153 26.4666C350.396 23.8729 352.09 20.2953 352.916 18.5164C354.338 15.4553 355.194 14.3347 355.866 14.6547C356.029 14.7325 353.575 21.6807 350.413 30.0948C347.252 38.509 343.973 47.6714 343.129 50.4553C340.276 59.863 337.429 70.5815 335.865 77.803C335.553 79.2471 335.013 81.5965 334.665 83.024C334.318 84.4515 333.777 86.801 333.465 88.2451C332.839 91.1343 331.959 94.7937 330.68 99.8207C329.356 105.022 323.466 120.766 322.193 122.508C321.603 123.314 321.161 124.117 321.211 124.291C321.482 125.232 322.997 124.21 326.186 120.936C328.144 118.925 330.243 116.888 330.85 116.409C332.288 115.273 332.453 114.782 332.938 110.204C333.349 106.319 333.67 104.359 334.568 100.224C334.839 98.9774 335.304 96.8291 335.602 95.4501C337.309 87.5447 339.8 78.3702 343.359 66.8889C345.951 58.5239 359.041 24.111 359.83 23.5864C361.411 22.5352 361.226 24.0404 358.874 31.3579C355.683 41.286 352.937 51.3383 351.109 59.7834C350.796 61.2275 350.256 63.577 349.909 65.0045C349.561 66.432 349.033 68.7277 348.736 70.1068C348.438 71.4858 347.951 73.7418 347.653 75.1209C347.356 76.4999 346.816 78.8489 346.453 80.3419C346.09 81.8349 345.473 84.3838 345.08 86.0072C343.688 91.7616 342.294 96.4784 340.366 101.964C338.171 108.211 338.262 108.64 341.189 105.841C342.414 104.67 343.077 103.716 343.233 102.901C343.467 101.678 343.923 99.5232 344.953 94.7675C345.601 91.781 346.723 87.4803 348.435 81.4169C349.956 76.0287 362.942 42.5601 365.68 36.9677C366.831 34.6191 368.498 31.3249 369.385 29.6477C370.273 27.9706 371.67 25.3179 372.491 23.754C373.312 22.1901 374.557 19.9391 375.257 18.7517C375.958 17.5643 377.05 15.7148 377.685 14.6415C378.32 13.5682 379.202 12.0329 379.644 11.2299C381.287 8.25296 384.496 3.51682 385.243 2.96837C386.315 2.18076 386.481 2.88462 385.591 4.45068C381.817 11.0966 369.811 41.1448 363.45 59.8658C358.335 74.9179 351.075 93.0346 349.901 93.6737C349.303 93.9994 348.683 95.4897 349.069 95.6734C349.603 95.9278 350.6 95.1301 350.984 94.1411C351.196 93.5931 351.575 93.0961 351.825 93.0361C352.075 92.9762 352.455 92.4913 352.668 91.9585C353.156 90.7432 369.023 69.5114 373.187 64.5013C375.312 61.9455 377.703 59.0589 379.443 56.9475C383.402 52.1452 384.424 50.9235 386.453 48.5679C387.647 47.1816 389.599 44.9114 390.791 43.5239C391.982 42.1366 394.009 39.7835 395.295 38.2958C396.58 36.8083 398.683 34.3728 399.968 32.8848C402.161 30.3431 403.697 28.5939 410.972 20.351C418.291 12.058 419.789 10.3513 422.055 7.72317C423.383 6.18327 425.078 4.26487 425.821 3.46024C426.565 2.65564 427.293 1.68674 427.439 1.30785C427.722 0.575701 428.769 -0.139169 429.234 0.0821878C429.636 0.273534 428.928 1.9201 428.388 2.04924C428.138 2.10918 427.735 2.6702 427.492 3.29604C427.249 3.92189 426.272 5.51623 425.321 6.83915C424.37 8.16191 423.094 10.0147 422.486 10.956C419.745 15.199 419.055 16.2456 417.4 18.6719C416.431 20.093 415.107 22.0694 414.459 23.0641C410.21 29.581 392.286 53.9233 387.471 59.716C386.695 60.6498 385.285 62.3483 384.337 63.4903C377.462 71.781 362.924 87.1201 355.86 93.5369C352.618 96.4817 349.897 99.0693 349.812 99.2871C349.728 99.5044 349.08 100.286 348.373 101.024C346.793 102.672 345.409 104.99 345.874 105.211C346.061 105.3 346.288 105.181 346.378 104.948C346.469 104.715 347.077 104.234 347.73 103.88C348.383 103.526 349.569 102.718 350.367 102.084C351.165 101.45 352.184 100.75 352.632 100.529C353.079 100.308 354.096 99.6068 354.89 98.9714C355.684 98.3358 356.932 97.508 357.663 97.132C358.394 96.7559 359.648 95.9312 360.451 95.2993C361.253 94.6677 370.933 89.3235 381.963 83.4235C392.992 77.5235 402.674 72.1797 403.477 71.5486C404.281 70.9174 405.769 69.9669 406.783 69.4363C407.798 68.9056 409.279 67.9521 410.075 67.3172C410.871 66.6822 411.888 65.9817 412.336 65.7604C412.783 65.5392 413.798 64.8375 414.591 64.201C415.384 63.5648 416.164 62.9885 416.326 62.9207C416.487 62.8528 417.268 62.2766 418.061 61.6401C418.853 61.0037 419.636 60.4287 419.802 60.3625C419.967 60.2964 421.016 59.4925 422.133 58.5764C423.251 57.6605 424.726 56.5345 425.41 56.0747C426.095 55.6148 426.826 55.0154 427.036 54.7425C427.246 54.4697 427.474 54.4142 427.542 54.6192C427.725 55.1718 424.367 58.8509 421.299 61.4591C419.82 62.7163 417.113 65.0249 415.284 66.5895C413.455 68.1542 411.705 69.5723 411.395 69.741C411.086 69.9098 409.644 71.022 408.19 72.2125C406.737 73.4031 405.411 74.4307 405.244 74.496C405.077 74.5614 404.292 75.1357 403.5 75.7721C402.707 76.4085 401.927 76.9848 401.765 77.0527C401.603 77.1205 400.823 77.6968 400.03 78.3332C399.238 78.9696 398.457 79.5459 398.296 79.6138C398.134 79.6816 397.353 80.2579 396.561 80.8941C395.768 81.5306 394.753 82.2322 394.306 82.4535C393.858 82.6748 392.843 83.3765 392.05 84.0128C391.257 84.649 390.242 85.3507 389.795 85.572C389.347 85.7933 388.329 86.4935 387.532 87.1279C386.736 87.7624 385.021 88.8418 383.721 89.5265C382.422 90.2113 380.7 91.2874 379.896 91.918C377.983 93.4171 357.041 104.621 354.913 105.284C354.01 105.565 352.679 106.124 351.955 106.526C351.232 106.929 349.903 107.482 349.002 107.757C348.102 108.031 347.1 108.391 346.777 108.556C346.454 108.722 344.927 109.187 343.383 109.59C341.051 110.2 340.227 110.694 338.519 112.505C336.229 114.935 332.624 119.13 332.457 119.558C332.156 120.336 333.326 119.967 336.549 118.268C338.505 117.237 340.839 116.162 341.737 115.88C342.634 115.596 344.661 114.666 346.241 113.811C347.821 112.956 349.851 112.03 350.753 111.754C351.654 111.477 352.984 110.922 353.707 110.52C354.431 110.117 355.758 109.567 356.658 109.296C357.557 109.025 358.652 108.596 359.091 108.343C359.529 108.09 360.623 107.663 361.522 107.394C362.421 107.125 363.515 106.698 363.953 106.445C364.392 106.192 365.486 105.765 366.385 105.496C367.283 105.228 368.377 104.801 368.816 104.548C369.254 104.294 370.349 103.867 371.247 103.599C372.146 103.33 373.24 102.903 373.678 102.65C374.117 102.397 375.211 101.97 376.11 101.701C377.008 101.432 377.868 101.131 378.02 101.03C378.173 100.93 379.032 100.629 379.931 100.36C380.83 100.091 381.924 99.6644 382.362 99.4113C382.801 99.1583 383.895 98.7313 384.794 98.4624C385.692 98.1935 386.786 97.7665 387.225 97.5135C387.663 97.2604 388.758 96.8334 389.656 96.5645C390.555 96.2956 391.649 95.8686 392.088 95.6156C392.526 95.3626 393.62 94.9355 394.519 94.6667C395.417 94.3978 396.512 93.9708 396.95 93.7177C397.389 93.4647 398.484 93.0346 399.384 92.7622C400.284 92.4897 401.846 91.8145 402.854 91.2625C403.863 90.7105 405.426 90.0313 406.328 89.754C407.23 89.4767 409.027 88.6743 410.321 87.9712C411.615 87.2682 413.41 86.4685 414.311 86.1947C415.212 85.9205 417.291 85.0213 418.931 84.1956C420.571 83.3703 422.086 82.6979 422.296 82.7016C423.091 82.7151 422.31 83.5342 420.779 84.2942C419.903 84.728 418.485 85.6853 417.627 86.4204C416.768 87.156 414.986 88.3216 413.665 89.0106C412.345 89.7002 410.609 90.7809 409.807 91.4127C409.004 92.0445 406.351 93.6248 403.909 94.9244C401.468 96.2239 398.811 97.8026 398.004 98.4322C396.096 99.922 378.278 109.457 376.139 110.133C375.234 110.419 372.733 111.601 370.581 112.76C368.429 113.919 365.93 115.096 365.028 115.375C364.125 115.655 362.561 116.335 361.553 116.888C360.544 117.44 358.982 118.115 358.082 118.387C357.182 118.66 356.087 119.09 355.648 119.343C355.21 119.596 354.116 120.023 353.217 120.291C352.319 120.56 351.459 120.862 351.306 120.962C351.154 121.062 350.294 121.364 349.396 121.632C348.497 121.901 347.635 122.21 347.478 122.321C346.274 123.17 331.894 126.713 326.554 127.476C324.246 127.806 324.141 127.884 319.359 132.873C316.69 135.657 313.562 138.788 312.408 139.832C308.547 143.325 308.26 144.588 311.734 142.8C312.831 142.235 314.468 141.544 315.37 141.265C316.273 140.986 317.372 140.546 317.813 140.287C318.254 140.028 319.973 139.426 321.633 138.949C323.293 138.473 324.901 137.952 325.207 137.792C325.81 137.477 333.534 135.383 339.583 133.896C341.653 133.387 345.041 132.553 347.111 132.043C349.181 131.533 352.516 130.714 354.522 130.223C359.88 128.913 373.692 125.125 374.34 124.789C374.647 124.63 376.256 124.111 377.916 123.635C379.575 123.159 381.06 122.683 381.215 122.576C381.37 122.469 382.232 122.162 383.13 121.893C384.029 121.625 385.123 121.198 385.562 120.945C386 120.692 387.094 120.265 387.993 119.996C388.892 119.727 389.986 119.3 390.424 119.047C390.863 118.794 391.958 118.365 392.857 118.094C393.756 117.823 395.084 117.273 395.808 116.87C396.531 116.468 397.862 115.91 398.765 115.629C399.669 115.348 403.036 113.712 406.249 111.993C409.462 110.274 412.688 108.781 413.419 108.674C414.15 108.567 415.449 107.872 416.306 107.13C417.163 106.387 418.019 105.854 418.208 105.944C418.722 106.189 418.555 106.393 416.595 107.922C415.607 108.693 414.079 109.929 413.198 110.668C412.318 111.408 411.458 112.064 411.286 112.127C411.115 112.191 410.323 112.762 409.528 113.397C408.732 114.032 407.251 114.985 406.236 115.516C405.222 116.047 403.734 116.997 402.93 117.628C401.034 119.117 384.255 128.097 382.113 128.77C381.208 129.054 379.41 129.862 378.116 130.565C376.822 131.268 375.025 132.069 374.124 132.345C373.223 132.621 371.893 133.175 371.17 133.578C370.447 133.98 369.119 134.531 368.219 134.801C367.32 135.072 366.225 135.501 365.787 135.754C365.348 136.007 364.254 136.434 363.355 136.703C362.457 136.972 361.363 137.399 360.924 137.652C360.485 137.905 359.391 138.332 358.493 138.6C357.594 138.869 356.734 139.171 356.582 139.271C356.43 139.371 355.57 139.673 354.672 139.941C353.773 140.21 352.913 140.511 352.761 140.612C352.609 140.712 351.749 141.013 350.85 141.282C349.952 141.55 349.09 141.857 348.935 141.964C348.78 142.071 347.297 142.543 345.639 143.014C343.982 143.484 342.495 143.966 342.336 144.085C341.954 144.368 323.497 149.562 319.407 150.536C314.566 151.691 303.579 154.135 299.36 154.997C296.259 155.63 295.219 156.092 293.42 157.636C292.221 158.665 290.085 160.498 288.673 161.708C287.26 162.918 285.867 164.21 285.576 164.578C284.703 165.684 285.881 165.813 287.754 164.816C288.693 164.318 290.199 163.683 291.1 163.407C292.002 163.131 292.866 162.818 293.021 162.711C293.176 162.604 294.66 162.127 296.32 161.652C297.98 161.176 299.592 160.654 299.903 160.491C300.775 160.033 312.935 156.923 317.726 155.933C319.207 155.626 322.943 154.851 326.029 154.209C329.114 153.567 332.945 152.787 334.541 152.476C352.276 149.014 364.573 146.146 378.321 142.266C383.418 140.827 387.719 139.554 387.878 139.435C388.038 139.317 389.524 138.836 391.182 138.365C392.84 137.895 394.323 137.422 394.478 137.315C394.633 137.208 395.495 136.901 396.393 136.633C397.292 136.365 398.151 136.063 398.304 135.963C398.456 135.863 399.317 135.558 400.217 135.286C401.117 135.013 402.165 134.63 402.547 134.433C402.928 134.236 403.763 133.997 404.403 133.902C405.043 133.806 406.148 133.39 406.858 132.976C408.126 132.239 408.859 132.176 408.589 132.829C408.513 133.01 406.734 134.125 404.635 135.308ZM429.51 53.3994C429.319 53.3082 429.24 53.0336 429.334 52.7891C429.429 52.5447 429.664 52.4193 429.855 52.5105C430.047 52.6016 430.126 52.8763 430.031 53.1208C429.936 53.3652 429.702 53.4906 429.51 53.3994ZM362.274 178.842C362.082 178.751 362.003 178.476 362.098 178.232C362.193 177.987 362.427 177.862 362.619 177.953C362.81 178.044 362.89 178.319 362.795 178.564C362.7 178.808 362.466 178.933 362.274 178.842ZM117 243.226C116.258 242.873 115.4 244.147 113.642 248.218C112.606 250.617 111.177 253.547 110.467 254.729C109.757 255.911 108.668 257.763 108.047 258.843C106.631 261.307 105.486 262.885 104.069 264.326C103.46 264.946 102.88 265.663 102.781 265.92C102.277 267.218 105.371 266.809 107.891 265.244C109.085 264.502 109.208 264.242 113.209 253.928C115.462 248.122 117.168 243.306 117 243.226ZM107.108 235.621C106.858 235.681 106.537 236.03 106.395 236.396C106.252 236.763 106.341 237.014 106.591 236.954C106.841 236.894 107.162 236.545 107.304 236.179C107.447 235.812 107.358 235.561 107.108 235.621ZM102.75 245.921C102.106 245.615 101.254 246.639 100.083 249.127C99.4143 250.547 98.2911 252.678 97.5867 253.863C96.8826 255.048 95.8043 256.905 95.1907 257.988C94.5774 259.072 93.4699 260.737 92.73 261.688C91.99 262.639 91.2487 263.761 91.0825 264.181C90.9162 264.601 90.1152 265.701 89.3028 266.625C88.4903 267.549 87.1608 269.061 86.3482 269.986C84.1864 272.445 83.8661 273.886 85.6952 272.923C86.0719 272.724 87.7392 272.17 89.4002 271.692C91.0612 271.213 92.7321 270.599 93.1136 270.329C93.9382 269.743 103.25 246.159 102.75 245.921Z" stroke="#B69B89" stroke-width="2" mask="url(#path-1-inside-1_1358_6254)"/>
</g>
</svg>
